/* XPM */
static char *result[] = {
/* columns rows colors chars-per-pixel */
"64 64 57 1 ",
"  c #2F2F37",
". c #363638",
"X c #39393A",
"o c #3C3C3D",
"O c #3E3E3E",
"+ c #3F3F40",
"@ c #3D3D43",
"# c #434343",
"$ c #444444",
"% c #484848",
"& c #4B4B4B",
"* c gray31",
"= c #515151",
"- c #57575A",
"; c #7E7946",
": c #5D5D60",
"> c #646464",
", c #686868",
"< c #747474",
"1 c #797979",
"2 c #9C700E",
"3 c #9C7020",
"4 c #B7932C",
"5 c #EB9D0E",
"6 c #F0B41F",
"7 c #EB9D20",
"8 c #D3B739",
"9 c #F1B823",
"0 c #F2BB25",
"q c #F0B42C",
"w c #F2C32A",
"e c #F4C42B",
"r c #F5CA31",
"t c #F6CD33",
"y c #F7D236",
"u c #F8D83A",
"i c #AFA648",
"p c #E2CC40",
"a c #FAE342",
"s c #FAE444",
"d c #FAE745",
"f c #FBEC49",
"g c #FBEE4B",
"h c #FCED4B",
"j c #FCEE4B",
"k c #FDEE4B",
"l c #FCEF4B",
"z c #FCEE4C",
"x c #FDEE4C",
"c c #FCEE4D",
"v c #FCEF4F",
"b c #FCEF51",
"n c #FCF052",
"m c #FDF15B",
"M c #FDF25E",
"N c #FEF577",
"B c #838383",
/* pixels */
"11111>>>>=================@@@@@==>>>>>>>>>>>>=================>1",
"11111>>>=================@@@@@==>>>>>>>>>>>>==================>1",
"1111>>>>================@@@@@@==>>>>>>>>>>>>==================>>",
">11>>>>===@@@@=========@@@@@@@@==>>>>>>>>>>========@@==========>",
">>>>=====@@  @@@@33@@@@@@@@@@@@====>>>>>>========+++@@==========",
"=======@@@     @38p3@@@@@@@@@@@@====>>>>=======#++++++@======@==",
"======@@@       3pj@@@@@@@@@++@@====>>>>======##++++XXX@====@@@=",
"=====@@@>>>>>  ==3==@@@==@@+++++@====>>======##++++XXXXX@==@@@@=",
">>>@@@@>>11>>>===>>======##++oooo  ==========+++++XXX3333@@@@@@@",
">>>>>>>>1111>>>>>>>>===####O.33oo         @@@@++++XX3333333@@@@@",
">>>>>>>>1111>>>>>>>>=####OOO3333oo            +++XXX33553333@@@@",
">===>>>>>11>>>>>>>>=####OOO333333o==    >>>>>>>+XX$333555533@@@@",
"@@@===>>>>>>>>>>===####XXX33355333===>>>>>1111>$$$334ss0533==@@@",
"@@@@===>>>>>>>====###+XXXX33555533==>>>>>111111&$333djjf533>===@",
"@@@@====>>>>======##+XXX33335555333>>>>>>111>11&&334jjjt33>>==@@",
" @@@@====>>======##+XXX333375557333>>>>>>>111>>&333djjj523>===@ ",
"   @@@@=========#++XXX3335557jj75333%>>>>>>111>>336jjjt33,,==@@ ",
"    @@@@========++XXX3335555jjj55333%>>>>>>>11>>35sjjj53,,==@@@@",
"    @@@@=======#+XX333555555jjjj5333%%>>>>>>111>>5wjjt3<,,==@@@@",
"@  @@@@========#OX335557755jjjlh75333%>>>>>>>11>><555<<,,====@@@",
">>>>>@@======>%#O5557555jjjjjbjjj5533>>>>==>>>>>><<,,,,,=====>@@",
">111>>>>====>>%%55555jjjjjjjbjjjj5533>>>====>>>>>=,,,,======>>>>",
"1111111>====>>>%5555jjjjjjjkjjjNj5333>>=====>>>>============>>>>",
"1111111>>==>>>>#,5555jjjjjjgjjNj5533>========>=======@@@@====>>1",
"11111>>>>>>>>===,,,5555jjjjjjjj57333,,===@@======@@@@@@@@@@==>>1",
"1111>>>>>>>>=====,,,,555jjjjjj55533,,,==@@@@===@@@@    @@@@@==>>",
"1111>>>>>>>>======,,--55jjjj5555333,,===@@@@@@@@@       @@@@==>>",
">11>>>>>>>>=======  --:55jj5555333,,,====@@@@@@@       @@@@====>",
">>>>>>>=====@@@@   @@::555555533<,,,>>>====@@@@@     @;yye5====>",
">>>>>====@@@@@@@@@@@@::35555533B<<,<>>>>====@@@@    @9ujjj33====",
">>>>====@@+++@@@@@@@@::3555533BB<<<>>>>>====@@@@    5yj53333====",
">>======#+++++@@@@@@@::335533BBB<>>>>>>>>====@@@@  @@ej3333=====",
"=====@@####333@@@@@@@::-33333BB1>>>>>=>>>>>====@@@@@@@@333@=====",
"====@@++#333353@@@@@@@:-,333BBB>>>>>===>>>>>====@@@@@@@@@@@@====",
"====@@++3333555@@@@@@@ -,,3<BB>>>>>>====>>>>====@++@@@@@@@@@====",
"===@@@@+33375555@@@    =,,,<<B>>>>>======>>=====++++@@@@@@@@@===",
"=@@@@@@@335555j5:    ===,,,,>>>>>========@@====OXX+++  @@@ @@@@=",
"@@@@@@@@35555jjj-   =====,,,>>>>========@@@@=OOOOXX+oo      @@@@",
"@@@@@@@@@355jjjj,,=======,,=>>>>=======@@@@XOOOOOXXX++o     @@@@",
"@====@@@ --55jj,,,===========>>=====@@@@@XXXXOO3333XX++==  @@@@@",
">>>====  ,,,,,,,,@@==============@@@@@ ....X33333333XO##=>@@111@",
">>>>======<,,,,=@@@@=========@@@@@@@@ ....33333355333O#%*1111111",
">>>>====>>>>===@@@@@==>>====@@@@@@@@ o..33333335555533$**111111>",
">>>>>==>>>>====@@@@>>>>>>======@@@@@+..3333335575555j333**1111>>",
">>>>>>>>>>===@@@++>>>>11>>1111===@@++X3333355555qMmhjjj33**11>>>",
">>>>>>>>>===@@++++%>>1111111111===#+++3335555555njjcjjjj33**>>>>",
">>>>>>>>====+++++%%>111111111111==##+33355555556zjjjjjjj331*%>>>",
">>>>>>>====++++333%%1111>11>>11>>==##3355555556kjkhxjjj3311>>>>>",
">>>>>====@+++333355%111>>>>>>>3>>>>=,,35555555kjjjjjj333<>>>>>>>",
">>>>====@@+333335555111>>>>>>333>>>>,,3355555jgjjjxj33,,<>>>>>>>",
">>>>====@333333555555511>>>>3333>>>>=,,333555jjjjjj:::,=>>>>>>>>",
">>>====333333557jjj5j55>>>>><33<>>>==,,:333575jjjj::@@@==>>>>>>>",
">@@@@@33333775jjkjkhjjj>>>>><<<<>====@@::3335555j-- @@@@@@@>>>@@",
"@@@@@3333555jjjjjjjvjjjj>>>>>><>====@@@@--3355553-      @@@@@@@@",
">@@>>3335555jjjjjjjlhjjj>>>>@@@>====@@@@ --335533-      @@@@@@@>",
">>>>>>3335555jjgjjjjjjj==>>@@@@@@==@@@@@@ -33333:-     >>@@@@>>>",
">>11>>>><<<5555jjjjjj@@@@@@@@  @@@@@@@@@==,,,,,,,====>>>>9e>>>>1",
"111111>>><<<5555jjgji@@@@@@@    @@@@@@===>><,,,,====>>>>raj5>>11",
"1111111>>><<<<555jj5@@@@@@@@    @@@@===>>>>>========>>>>uj5>>111",
"11111111>>>>>><55555===@@@@@   @@@@===1>>>>>>========>>>>5>>>111",
"11111111>>>>>==<<<<,======@@@  @@===>111>>>>>>>========>>>>>>>11",
"1111111>>>>>====>><<=======@@  @@==>>111>>>>>>>>=========>>>>>11",
"1111111>>>======>>>>=======@    ===>1111>>>>>>>>==========>>>>>1",
"111111>>>========>>=======@@    ==>>>11>>>>>>>>============>>>>>"
};
