/* XPM */
static char *result[] = {
/* columns rows colors chars-per-pixel */
"64 64 78 1 ",
"  c #2F2F37",
". c #363638",
"X c #39393A",
"o c #3C3C3D",
"O c #3E3E3E",
"+ c #3F3F40",
"@ c #3D3D43",
"# c #434343",
"$ c #444444",
"% c #484848",
"& c #4B4B4B",
"* c gray31",
"= c #515151",
"- c #57575A",
"; c #7E7946",
": c #5D5D60",
"> c #646464",
", c #686868",
"< c #747474",
"1 c #797979",
"2 c #9C700E",
"3 c #9C7020",
"4 c #B7932C",
"5 c #DC9511",
"6 c #EB9D0E",
"7 c #EB9D0F",
"8 c #EB9E0E",
"9 c #E19813",
"0 c #EB9E11",
"q c #EC9F10",
"w c #ECA111",
"e c #ECA212",
"r c #EEA715",
"t c #EEAD19",
"y c #EEAD1B",
"u c #EFB21E",
"i c #F0B41F",
"p c #EB9D20",
"a c #F1B823",
"s c #F2BB25",
"d c #F2BC25",
"f c #F0B42C",
"g c #F2C32A",
"h c #F4C42B",
"j c #F6CD33",
"k c #F7D236",
"l c #F8D83A",
"z c #AFA648",
"x c #E2CC40",
"c c #FAE444",
"v c #FAE745",
"b c #FBE947",
"n c #FBEC49",
"m c #FBEE4B",
"M c #FCED4B",
"N c #FCEE4B",
"B c #FDEE4B",
"V c #FCEF4B",
"C c #FCEE4C",
"Z c #FCEE4D",
"A c #FCEF4F",
"S c #FCEF51",
"D c #FCF052",
"F c #FDF15B",
"G c #FDF25E",
"H c #FEF577",
"J c #838383",
"K c #EEE39E",
"L c #FCED9D",
"P c #FBEBAD",
"I c #FCF0B0",
"U c #FEF6B5",
"Y c #FEF9B7",
"T c #FEFAC0",
"R c #FBF7C8",
"E c #F6F3D4",
"W c #FFFBD2",
"Q c #FFFCDB",
/* pixels */
"11111>>>>=================@@@@@==>>>>>>>>>>>>=================>1",
"11111>>>=================@@@@@==>>>>>>>>>>>>==================>1",
"1111>>>>================@@@@@@==>>>>>>>>>>>>==================>>",
">11>>>>===@@@@=========@@@@@@@@==>>>>>>>>>>========@@==========>",
">>>>=====@@  @@@@33@@@@@@@@@@@@====>>>>>>========+++@@==========",
"=======@@@     @3Kx3@@@@@@@@@@@@====>>>>=======#++++++@======@==",
"======@@@       3RN@@@@@@@@@++@@====>>>>======##++++XXX@====@@@=",
"=====@@@>>>>>  ==3==@@@==@@+++++@====>>======##++++XXXXX@==@@@@=",
">>>@@@@>>11>>>===>>======##++oooo  ==========+++++XXX3333@@@@@@@",
">>>>>>>>1111>>>>>>>>===####O.33oo         @@@@++++XX3333333@@@@@",
">>>>>>>>1111>>>>>>>>=####OOO3333oo            +++XXX33663333@@@@",
">===>>>>>11>>>>>>>>=####OOO333333o==    >>>>>>>+XX$333666633@@@@",
"@@@===>>>>>>>>>>===####XXX33366333===>>>>>1111>$$$334ccs633==@@@",
"@@@@===>>>>>>>====###+XXXX33666633==>>>>>111111&$333vNNn633>===@",
"@@@@====>>>>======##+XXX33336666333>>>>>>111>11&&334TQYj33>>==@@",
" @@@@====>>======##+XXX3333p688p333>>>>>>>111>>&333vQQN623>===@ ",
"   @@@@=========#++XXX3336660e6p6333%>>>>>>111>>33iNWWj33,,==@@ ",
"    @@@@========++XXX333666866666333%>>>>>>>11>>36cNNN63,,==@@@@",
"    @@@@=======#+XX333666686NN6w8333%%>>>>>>111>>6gNNj3<,,==@@@@",
"@  @@@@========#OX33666p066NNNe666333%>>>>>>>11>><666<<,,====@@@",
">>>>>@@======>%#O666p6866eNNNSN666633>>>>==>>>>>><<,,,,,=====>@@",
">111>>>>====>>%%66668weNNNNNSNNe66633>>>====>>>>>=,,,,======>>>>",
"1111111>====>>>%6666q6NNNNNBNNNH66333>>=====>>>>============>>>>",
"1111111>>==>>>>#,6666etNNNNmNNHt6633>========>=======@@@@====>>1",
"11111>>>>>>>>===,,,6666NNNNNNNt67333,,===@@======@@@@@@@@@@==>>1",
"1111>>>>>>>>=====,,,,666tbNNt666633,,,==@@@@===@@@@    @@@@@==>>",
"1111>>>>>>>>======,,--666e666666333,,===@@@@@@@@@       @@@@==>>",
">11>>>>>>>>=======  --:66666666333,,,====@@@@@@@       @@@@====>",
">>>>>>>=====@@@@   @@::666666633<,,,>>>====@@@@@     @;Lkh6====>",
">>>>>====@@@@@@@@@@@@::36666633J<<,<>>>>====@@@@    @PQWNN33====",
">>>>====@@+++@@@@@@@@::3666633JJ<<<>>>>>====@@@@    6kN63333====",
">>======#+++++@@@@@@@::336633JJJ<>>>>>>>>====@@@@  @@hN3333=====",
"=====@@####333@@@@@@@::-33333JJ1>>>>>=>>>>>====@@@@@@@@333@=====",
"====@@++#333363@@@@@@@:-,333JJJ>>>>>===>>>>>====@@@@@@@@@@@@====",
"====@@++3333666@@@@@@@ -,,3<JJ>>>>>>====>>>>====@++@@@@@@@@@====",
"===@@@@+333p6666@@@    =,,,<<J>>>>>======>>=====++++@@@@@@@@@===",
"=@@@@@@@336666N6:    ===,,,,>>>>>========@@====OXX+++  @@@ @@@@=",
"@@@@@@@@36666NNN-   =====,,,>>>>========@@@@=OOOOXX+oo      @@@@",
"@@@@@@@@@366NNTT,,=======,,=>>>>=======@@@@XOOOOOXXX++o     @@@@",
"@====@@@ --66NWE,,===========>>=====@@@@@XXXXOO3333XX++==  @@@@@",
">>>====  ,,,,,,,,@@==============@@@@@ ....X33333333XO##=>@@111@",
">>>>======<,,,,=@@@@=========@@@@@@@@ ....33333366333O#%*1111111",
">>>>====>>>>===@@@@@==>>====@@@@@@@@ o..33333336666633$**111111>",
">>>>>==>>>>====@@@@>>>>>>======@@@@@+..33333366p6666d333**1111>>",
">>>>>>>>>>===@@@++>>>>11>>1111===@@++X3333366666fGFMe6653**11>>>",
">>>>>>>>>===@@++++%>>1111111111===#+++3336666666DNNZNe6633**>>>>",
">>>>>>>>====+++++%%>111111111111==##+3336666666iCNNNNNte331*%>>>",
">>>>>>>====++++333%%1111>11>>11>>==##336666666iBNBMu66e3311>>>>>",
">>>>>====@+++333366%111>>>>>>>3>>>>=,,36666666BNNNt6e333<>>>>>>>",
">>>>====@@+333336666111>>>>>>333>>>>,,3366666NmNNN6u33,,<>>>>>>>",
">>>>====@333333666668711>>>>3333>>>>=,,333666NNNNte:::,=>>>>>>>>",
">>>====33333366066w6y86>>>>><33<>>>==,,:3336p6Ntu6::@@@==>>>>>>>",
">@@@@@33333pp86666eMNet>>>>><<<<>====@@::333666669- @@@@@@@>>>@@",
"@@@@@3333666q6eNNNNANt6t>>>>>><>====@@@@--3366663-      @@@@@@@@",
">@@>>333666667NNNNNVM66e>>>>@@@>====@@@@ --336633-      @@@@@@@>",
">>>>>>3336666etmNNNt6er==>>@@@@@@==@@@@@@ -33333:-     >>@@@@>>>",
">>11>>>><<<6666tNNt6r@@@@@@@@  @@@@@@@@@==,,,,,,,====>>>>ah>>>>1",
"111111>>><<<6666tN6rz@@@@@@@    @@@@@@===>><,,,,====>>>>IUN6>>11",
"1111111>>><<<<6666e6@@@@@@@@    @@@@===>>>>>========>>>>lN6>>111",
"11111111>>>>>><66666===@@@@@   @@@@===1>>>>>>========>>>>6>>>111",
"11111111>>>>>==<<<<,======@@@  @@===>111>>>>>>>========>>>>>>>11",
"1111111>>>>>====>><<=======@@  @@==>>111>>>>>>>>=========>>>>>11",
"1111111>>>======>>>>=======@    ===>1111>>>>>>>>==========>>>>>1",
"111111>>>========>>=======@@    ==>>>11>>>>>>>>============>>>>>"
};
