/* XPM */
static char *result[] = {
/* columns rows colors chars-per-pixel */
"64 64 93 2 ",
"   c #2F2F37",
".  c #363638",
"X  c #39393A",
"o  c #3C3C3D",
"O  c #3E3E3E",
"+  c #3F3F40",
"@  c #3D3D43",
"#  c #434343",
"$  c #444444",
"%  c #484848",
"&  c #4B4B4B",
"*  c gray31",
"=  c #515151",
"-  c #57575A",
";  c #7E7946",
":  c #5D5D60",
">  c #646464",
",  c #686868",
"<  c #747474",
"1  c #797979",
"2  c #9C700E",
"3  c #9F721F",
"4  c #A1731F",
"5  c #A6761E",
"6  c #A8771D",
"7  c #A9781D",
"8  c #AB791D",
"9  c #B07B1C",
"0  c #976E24",
"q  c #986F24",
"w  c #9C7020",
"e  c #9D7020",
"r  c #9C7120",
"t  c #9D7120",
"y  c #9F7120",
"u  c #8F6E32",
"i  c #8E713D",
"p  c #A17320",
"a  c #A17420",
"s  c #B7932C",
"d  c #B68832",
"f  c #DC9411",
"g  c #DE9611",
"h  c #D9941A",
"j  c #E69A0F",
"k  c #E69B0F",
"l  c #EA9D0E",
"z  c #EB9D0E",
"x  c #EB9D0F",
"c  c #EA9E0E",
"v  c #EB9E0E",
"b  c #EB9E0F",
"n  c #EC9E0E",
"m  c #EC9F0F",
"M  c #E69A10",
"N  c #E79C11",
"B  c #EB9E11",
"V  c #EC9F10",
"C  c #ECA00F",
"Z  c #EBA010",
"A  c #EBA011",
"S  c #ECA010",
"D  c #ECA111",
"F  c #ECA212",
"G  c #EEA715",
"H  c #EEA815",
"J  c #EEAD19",
"K  c #F0B41F",
"L  c #EB9D20",
"P  c #F1B823",
"I  c #F2BB25",
"U  c #F2C32A",
"Y  c #F4C42B",
"T  c #F6CD33",
"R  c #F7D236",
"E  c #F8D83A",
"W  c #AFA648",
"Q  c #E2CC40",
"!  c #FAE444",
"~  c #FAE745",
"^  c #FBEC49",
"/  c #FCEE4B",
"(  c #838383",
")  c #EEE39E",
"_  c #FCED9D",
"`  c #FBEBAD",
"'  c #FCF0B0",
"]  c #FEF6B5",
"[  c #FEF9B7",
"{  c #FEFAC0",
"}  c #FBF7C8",
"|  c #FFFBD2",
" . c #FFFCDB",
/* pixels */
"1 1 1 1 1 > > > > = = = = = = = = = = = = = = = = = @ @ @ @ @ = = > > > > > > > > > > > > = = = = = = = = = = = = = = = = = > 1 ",
"1 1 1 1 1 > > > = = = = = = = = = = = = = = = = = @ @ @ @ @ = = > > > > > > > > > > > > = = = = = = = = = = = = = = = = = = > 1 ",
"1 1 1 1 > > > > = = = = = = = = = = = = = = = = @ @ @ @ @ @ = = > > > > > > > > > > > > = = = = = = = = = = = = = = = = = = > > ",
"> 1 1 > > > > = = = @ @ @ @ = = = = = = = = = @ @ @ @ @ @ @ @ = = > > > > > > > > > > = = = = = = = = @ @ = = = = = = = = = = > ",
"> > > > = = = = = @ @     @ @ @ @ w w @ @ @ @ @ @ @ @ @ @ @ @ = = = = > > > > > > = = = = = = = = + + + @ @ = = = = = = = = = = ",
"= = = = = = = @ @ @           @ w ) Q w @ @ @ @ @ @ @ @ @ @ @ @ = = = = > > > > = = = = = = = # + + + + + + @ = = = = = = @ = = ",
"= = = = = = @ @ @               w } / @ @ @ @ @ @ @ @ @ + + @ @ = = = = > > > > = = = = = = # # + + + + X X X @ = = = = @ @ @ = ",
"= = = = = @ @ @ > > > > >     = = w = = @ @ @ = = @ @ + + + + + @ = = = = > > = = = = = = # # + + + + X X X X X @ = = @ @ @ @ = ",
"> > > @ @ @ @ > > 1 1 > > > = = = > > = = = = = = # # + + o o o o     = = = = = = = = = = + + + + + X X X w w w w @ @ @ @ @ @ @ ",
"> > > > > > > > 1 1 1 1 > > > > > > > > = = = # # # # O . w w o o                   @ @ @ @ + + + + X X w w w w w w w @ @ @ @ @ ",
"> > > > > > > > 1 1 1 1 > > > > > > > > = # # # # O O O w w w w o o                         + + + X X X w w z z w w w w @ @ @ @ ",
"> = = = > > > > > 1 1 > > > > > > > > = # # # # O O O w w w w w w o = =         > > > > > > > + X X $ w w w z z z z w w @ @ @ @ ",
"@ @ @ = = = > > > > > > > > > > = = = # # # # X X X w w w w 8 w w w = = = > > > > > 1 1 1 1 > $ $ $ w w s ! ! I z w w = = @ @ @ ",
"@ @ @ @ = = = > > > > > > > = = = = # # # + X X X X w w w f 4 8 w w = = > > > > > 1 1 1 1 1 1 & $ w w w ~ / / ^ z w w > = = = @ ",
"@ @ @ @ = = = = > > > > = = = = = = # # + X X X w w w w 4 z z 4 w w w > > > > > > 1 1 1 > 1 1 & & w w s {  .[ T w w > > = = @ @ ",
"  @ @ @ @ = = = = > > = = = = = = # # + X X X w w w w p z v v L w w w > > > > > > > 1 1 1 > > & w w w ~  . ./ z 2 w > = = = @   ",
"      @ @ @ @ = = = = = = = = = # + + X X X w w w 4 f z B F z L w w w w % > > > > > > 1 1 1 > > w w K / | | T w w , , = = @ @   ",
"        @ @ @ @ = = = = = = = = + + X X X w w w 4 z z z v v z z 4 w w w % > > > > > > > 1 1 > > w z ! / / / z w , , = = @ @ @ @ ",
"        @ @ @ @ = = = = = = = # + X X w w w w 4 z z z v v v v D v w w w % % > > > > > > 1 1 1 > > z U / / T w < , , = = @ @ @ @ ",
"@     @ @ @ @ = = = = = = = = # O X w w w w 4 L B z v v v v v v z z w w w % > > > > > > > 1 1 > > < z z z < < , , = = = = @ @ @ ",
"> > > > > @ @ = = = = = = > % # O 8 4 8 w 5 v z v v v v v v v v v z j w w > > > > = = > > > > > > < < , , , , , = = = = = > @ @ ",
"> 1 1 1 > > > > = = = = > > % % 8 4 8 w 4 Z n v v v v v v v v v n z 8 w w > > > = = = = > > > > > = , , , , = = = = = = > > > > ",
"1 1 1 1 1 1 1 > = = = = > > > % 4 w w w w 8 v v v v v v v v v v z j w w w > > = = = = = > > > > = = = = = = = = = = = = > > > > ",
"1 1 1 1 1 1 1 > > = = > > > > # u w w 8 9 w 8 v v v v v v v v v z 8 w w > = = = = = = = = > = = = = = = = @ @ @ @ = = = = > > 1 ",
"1 1 1 1 1 > > > > > > > > = = = , , , 4 w w w 8 v v v v v v v n M w w w , , = = = @ @ = = = = = = @ @ @ @ @ @ @ @ @ @ = = > > 1 ",
"1 1 1 1 > > > > > > > > = = = = = , , , , w w w k v v v v v n z 8 w w , , , = = @ @ @ @ = = = @ @ @ @         @ @ @ @ @ = = > > ",
"1 1 1 1 > > > > > > > > = = = = = = , , - 0 w 4 8 F z z z z z 8 w w w , , = = = @ @ @ @ @ @ @ @ @               @ @ @ @ = = > > ",
"> 1 1 > > > > > > > > = = = = = = =     - - q w w z z z z z 8 w w w , , , = = = = @ @ @ @ @ @ @               @ @ @ @ = = = = > ",
"> > > > > > > = = = = = @ @ @ @       @ @ : : w 4 w 8 8 w w w w < , , , > > > = = = = @ @ @ @ @           @ ; _ R Y z = = = = > ",
"> > > > > = = = = @ @ @ @ @ @ @ @ @ @ @ @ : : w 8 4 w w 9 w w ( < < , < > > > > = = = = @ @ @ @         @ `  .| / / w w = = = = ",
"> > > > = = = = @ @ + + + @ @ @ @ @ @ @ @ : : w 4 8 w 5 w w ( ( < < < > > > > > = = = = @ @ @ @         z R / z w w w w = = = = ",
"> > = = = = = = # + + + + + @ @ @ @ @ @ @ : : w w 4 w w w ( ( ( < > > > > > > > > = = = = @ @ @ @     @ @ Y / w w w w = = = = = ",
"= = = = = @ @ # # # # w w w @ @ @ @ @ @ @ : : - w w e w w ( ( 1 > > > > > = > > > > > = = = = @ @ @ @ @ @ @ @ w w w @ = = = = = ",
"= = = = @ @ + + # w w w w z w @ @ @ @ @ @ @ : - , w w w ( ( ( > > > > > = = = > > > > > = = = = @ @ @ @ @ @ @ @ @ @ @ @ = = = = ",
"= = = = @ @ + + w w w w z z z @ @ @ @ @ @ @   - , , w < ( ( > > > > > > = = = = > > > > = = = = @ + + @ @ @ @ @ @ @ @ @ = = = = ",
"= = = @ @ @ @ + w w w L z z z z @ @ @         = , , , < < ( > > > > > = = = = = = > > = = = = = + + + + @ @ @ @ @ @ @ @ @ = = = ",
"= @ @ @ @ @ @ @ w w z z z v H z :         = = = , , , , > > > > > = = = = = = = = @ @ = = = = O X X + + +     @ @ @   @ @ @ @ = ",
"@ @ @ @ @ @ @ @ w z z z v v v S i       = = = = = , , , > > > > = = = = = = = = @ @ @ @ = O O O O X X + o o             @ @ @ @ ",
"@ @ @ @ @ @ @ @ @ w z z S v v v N , = = = = = = = , , = > > > > = = = = = = = @ @ @ @ X O O O O O X X X + + o           @ @ @ @ ",
"@ = = = = @ @ @   - - z l v v v d , = = = = = = = = = = = > > = = = = = @ @ @ @ @ X X X X O O w w w w X X + + = =     @ @ @ @ @ ",
"> > > = = = =     , , , , , , , , @ @ = = = = = = = = = = = = = = @ @ @ @ @   . . . . X w w w w w w w w X O # # = > @ @ 1 1 1 @ ",
"> > > > = = = = = = < , , , , = @ @ @ @ = = = = = = = = = @ @ @ @ @ @ @ @   . . . . w w w w w w 3 w w w w O # % * 1 1 1 1 1 1 1 ",
"> > > > = = = = > > > > = = = @ @ @ @ @ = = > > = = = = @ @ @ @ @ @ @ @   o . . w w w w w e w 3 w z z 4 w w $ * * 1 1 1 1 1 1 > ",
"> > > > > = = > > > > = = = = @ @ @ @ > > > > > > = = = = = = @ @ @ @ @ + . . w w w w w w t w w v v l z 4 w w w * * 1 1 1 1 > > ",
"> > > > > > > > > > = = = @ @ @ + + > > > > 1 1 > > 1 1 1 1 = = = @ @ + + X w w w w w 3 w w 4 v v v v v v v 4 6 w * * 1 1 > > > ",
"> > > > > > > > > = = = @ @ + + + + % > > 1 1 1 1 1 1 1 1 1 1 = = = # + + + w w w 3 w w z z z v v v z v v v v w w w * * > > > > ",
"> > > > > > > > = = = = + + + + + % % > 1 1 1 1 1 1 1 1 1 1 1 1 = = # # + w w e 4 w z z z z z m v v v v v v v w w w 1 * % > > > ",
"> > > > > > > = = = = + + + + w w w % % 1 1 1 1 > 1 1 > > 1 1 > > = = # # w w w w f z z z v v v v v c v v v 8 3 w 1 1 > > > > > ",
"> > > > > = = = = @ + + + w w w w 8 9 % 1 1 1 > > > > > > > w > > > > = , , w y w 8 z z v v v v v v v 8 w w w w < > > > > > > > ",
"> > > > = = = = @ @ + w w w w w w 4 z z 1 1 1 > > > > > > w w w > > > > , , w w w 4 8 z v v v v v v 8 a w w , , < > > > > > > > ",
"> > > > = = = = @ w w w w w w w 4 z z v v z 1 1 > > > > w w w w > > > > = , , w e w w z v v v v v 8 4 : : : , = > > > > > > > > ",
"> > > = = = = w w w w w w 4 z B z z b v v v z > > > > > < w w < > > > = = , , : w w w 8 h 7 w 8 v w : : @ @ @ = = > > > > > > > ",
"> @ @ @ @ @ w w w w w w p v z z z v v v v v J > > > > > < < < < > = = = = @ @ : : w w w w g 8 w 8 w -   @ @ @ @ @ @ @ > > > @ @ ",
"@ @ @ @ @ w w w w 8 4 z V z A H v v v v v v z J > > > > > > < > = = = = @ @ @ @ - - r w w w w w w 0             @ @ @ @ @ @ @ @ ",
"> @ @ > > w w w 8 4 z z z x H v v v v v v n z F > > > > @ @ @ > = = = = @ @ @ @   - - w w 4 4 w w -             @ @ @ @ @ @ @ > ",
"> > > > > > w w w w 9 z z F C v v v v v n F G = = > > @ @ @ @ @ @ = = @ @ @ @ @ @   - w w w w e : -           > > @ @ @ @ > > > ",
"> > 1 1 > > > > < < < z z z l v v v v n G @ @ @ @ @ @ @ @     @ @ @ @ @ @ @ @ @ = = , , , , , , , = = = = > > > > P Y > > > > 1 ",
"1 1 1 1 1 1 > > > < < < z z z v v v v G W @ @ @ @ @ @ @         @ @ @ @ @ @ = = = > > < , , , , = = = = > > > > ' ] / z > > 1 1 ",
"1 1 1 1 1 1 1 > > > < < < < z l v v C z @ @ @ @ @ @ @ @         @ @ @ @ = = = > > > > > = = = = = = = = > > > > E / z > > 1 1 1 ",
"1 1 1 1 1 1 1 1 > > > > > > < z z z z z = = = @ @ @ @ @       @ @ @ @ = = = 1 > > > > > > = = = = = = = = > > > > z > > > 1 1 1 ",
"1 1 1 1 1 1 1 1 > > > > > = = < < < < , = = = = = = @ @ @     @ @ = = = > 1 1 1 > > > > > > > = = = = = = = = > > > > > > > 1 1 ",
"1 1 1 1 1 1 1 > > > > > = = = = > > < < = = = = = = = @ @     @ @ = = > > 1 1 1 > > > > > > > > = = = = = = = = = > > > > > 1 1 ",
"1 1 1 1 1 1 1 > > > = = = = = = > > > > = = = = = = = @         = = = > 1 1 1 1 > > > > > > > > = = = = = = = = = = > > > > > 1 ",
"1 1 1 1 1 1 > > > = = = = = = = = > > = = = = = = = @ @         = = > > > 1 1 > > > > > > > > = = = = = = = = = = = = > > > > > "
};
