/* XPM */
static char *result[] = {
/* columns rows colors chars-per-pixel */
"64 64 76 1 ",
"  c #251909",
". c #271B0B",
"X c #291D0C",
"o c #2A1D0D",
"O c #2B1E0E",
"+ c #2C1F0E",
"@ c #2D1F0F",
"# c #2E210E",
"$ c #30200E",
"% c #30210E",
"& c #2E2111",
"* c #302010",
"= c #302312",
"- c #342512",
"; c #352613",
": c #3B2915",
"> c #402B13",
", c #432B13",
"< c #402B16",
"1 c #6E442B",
"2 c #6E442D",
"3 c #70462D",
"4 c #6B4131",
"5 c #784336",
"6 c #704930",
"7 c #754930",
"8 c #7B4F34",
"9 c #815435",
"0 c #82543A",
"q c #84563C",
"w c #895A3A",
"e c #895B3A",
"r c #8B5A3C",
"t c #905F3F",
"y c #915F41",
"u c #915F44",
"i c #976041",
"p c #9D6447",
"a c #9D6A4D",
"s c #9D735D",
"d c #A36B48",
"f c #AB775B",
"g c #AD775B",
"h c #8A6676",
"j c #9D7373",
"k c #AB7C63",
"l c #AB7E67",
"z c #AC7E67",
"x c #AD7E67",
"c c #AE7C68",
"v c #AD7F68",
"b c #AE7F68",
"n c #AD7E6A",
"m c #AC7F6C",
"M c #B47C63",
"N c #B47E67",
"B c #B67C68",
"V c #AE816E",
"C c #B0806B",
"Z c #B2826C",
"A c #B5856D",
"S c #B5856E",
"D c #B78A6D",
"F c #B78670",
"G c #B88373",
"H c #BC8A73",
"J c #BE8C73",
"K c #BE8F73",
"L c #BE8F75",
"P c #533E82",
"I c #533E85",
"U c #533E8A",
"Y c #C2A291",
"T c #CEB3A5",
"R c white",
"E c None",
/* pixels */
"EEEEEEEEEEEEEEEEEEEEEEEEEEEEEEEEEEEEEEEEEEEEEEEEEEEEEEEEEEEEEEEE",
"EEEEEEEEEEEEEEEEEEEEEEEEEEEEEEEEEEEEEEEEEEEEEEEEEEEEEEEEEEEEEEEE",
"EEEEEEEEEEEEEEEEEEEEEEEEEEEEEEEEEEEEEEEEEEEEEEEEEEEEEEEEEEEEEEEE",
"EEEEEEEEEEEEEEEEEEEEEEEEEEEEEEEEEEEEEEEEEEEEEEEEEEEEEEEEEEEEEEEE",
"EEEEEEEEEEEEEEEEEEEEEEEEEEEEEEEEEEEEEEEEEEEEEEEEEEEEEEEEEEEEEEEE",
"EEEEEEEEEEEEEEEEEEEEEEEEEEEEEEEEEEEEEEEEEEEEEEEEEEEEEEEEEEEEEEEE",
"EEEEEEEEEEEEEEEEEEEEEEEEEEEEEEEEEEEEEEEEEEEEEEEEEEEEEEEEEEEEEEEE",
"EEEEEEEEEEEEEEEEEEEEEEEEEEEEEEEEEEEEEEEEEEEEEEEEEEEEEEEEEEEEEEEE",
"EEEEEEEEEEEEEEEEEEEEEEEEEEEEEEEEEEEEEEEEEEEEEEEEEEEEEEEEEEEEEEEE",
"EEEEEEEEEEEEEEEEEEEEEEEEEEEEEEEEEEEEEEEEEEEEEEEEEEEEEEEEEEEEEEEE",
"EEEEEEEEEEEEEEEEEEEEEEEEEEEEEEEEEEEEEEEEEEEEEEEEEEEEEEEEEEEEEEEE",
"EEEEEEEEEEEEEEEEEEEEEEEEEEEEEEEEEEEEEEEEEEEEEEEEEEEEEEEEEEEEEEEE",
"EEEEEEEEEEEEEEEEEEEEEEEEEEEEEEEEEEEEEEEEEEEEEEEEEEEEEEEEEEEEEEEE",
"EEEEEEEEEEEEEEEEEEEEEEEEEEEEEEEEEEEEEEEEEEEEEEEEEEEEEEEEEEEEEEEE",
"EEEEEEEEEEEEEEEEEEEEEEEEEEEEEEEEEEEEEEEEEEEEEEEEEEEEEEEEEEEEEEEE",
"EEEEEEEEEEEEEEEEEEEEEEEEEEEEEEEEEEEEEEEEEEEEEEEEEEEEEEEEEEEEEEEE",
"EEEEEEEEEEEEEEE&#%%++++++**XXXXXX.  ....O++++OOO&EEEEEEEEEEEEEEE",
"EEEEEEEEEEEEEEE&%%%+++++****XXXXX   ....+++++OOO&EEEEEEEEEEEEEEE",
"EEEEEEEEEEEEEEE&%%++++++*****XXX    ....++++XXOO&EEEEEEEEEEEEEEE",
"EEEEEEEEEEEEEEE&%%++%%++*****XXX    >>...+++XXOO&EEEEEEEEEEEEEEE",
"EEEEEEEEEEEEEEE&%%++%%$***++XXXXXXX>><<...++XXO+&EEEEEEEEEEEEEEE",
"EEEEEEEEEEEEEEE&#++++$$**+++XX--XX,,<<<<..@@XXX+&EEEEEEEEEEEEEEE",
"EEEEEEEEEEEEEEE&+++++++++++------,,,<<<<@@@@XXXX&EEEEEEEEEEEEEEE",
"EEEEEEEEEEEEEEE+++++++++++------,,,,<<<<@@;;XXXXoEEEEEEEEEEEEEEE",
"EEEEEEEEEEEEEEEo+++%%DDKKKKKKJJJJJJJJLLgggg;;XXXoEEEEEEEEEEEEEEE",
"EEEEEEEEEEEEEEEo++%%DDDKKKKKKKJJJJJJLLLLgggg;;XXoEEEEEEEEEEEEEEE",
"EEEEEEEEEEEEEEEo++%DDDDDKKllKKKJJJJLLLLLLgggg;;ooEEEEEEEEEEEEEEE",
"EEEEEEEEEEEEEEEo++ADDDDDDlllVKKJJJJLLLLLLxggga;;oEEEEEEEEEEEEEEE",
"EEEEEEEEEEEEEEE==lASSSSAlllVVVJJJJHHLLLLlllfaaa;=EEEEEEEEEEEEEEE",
"EEEEEEEEEEEEEEE=lllSSSSSlllVVVVJJHHHHLLHllllaaaa=EEEEEEEEEEEEEEE",
"EEEEEEEEEEEEEEE=llllSZvlllllmVVVssHHHHHHHllllaaa=EEEEEEEEEEEEEEE",
"EEEEEEEEEEEEEEE=llllCllllllllVVcsssHFbllllllllaa=EEEEEEEEEEEEEEE",
"EEEEEEEEEEEEEEE=llllzllllllllVcBBsssblllllllllla=EEEEEEEEEEEEEEE",
"EEEEEEEEEEEEEEE=SSllYlllllllncBBHHsshllllllTllll=EEEEEEEEEEEEEEE",
"EEEEEEEEEEEEEEE:SSSSRRRRUUUPcBBHHHHjIUUURRRRllll:EEEEEEEEEEEEEEE",
"EEEEEEEEEEEEEEE:pSSSSRRRUUUGBBBHHHHGGUUURRRHlll9:EEEEEEEEEEEEEEE",
"EEEEEEEEEEEEEEEeppMMSSMMMMMMBB4444GGGHHHHHHHdd999EEEEEEEEEEEEEEE",
"EEEEEEEEEEEEEEEeppMMMMMMMMMMM444444GGHHHHHHldd99eEEEEEEEEEEEEEEE",
"EEEEEEEEEEEEEEEeppMMMMMMMGGM44444444llHHHHlldd99eEEEEEEEEEEEEEEE",
"EEEEEEEEEEEEEEEeuppMMMMMMGG5444444445llHHNlldt99wEEEEEEEEEEEEEEE",
"EEEEEEEEEEEEEEE7uuiikkMM5555555555555555MMlltt00wEEEEEEEEEEEEEEE",
"EEEEEEEEEEEEEEE7uuiiikkk5555555555555555kkkttt00rEEEEEEEEEEEEEEE",
"EEEEEEEEEEEEEEEruuiiiikkk55555555555555kkktttt00rEEEEEEEEEEEEEEE",
"EEEEEEEEEEEEEEErryiiiiikki555555555555tkkttttt000EEEEEEEEEEEEEEE",
"EEEEEEEEEEEEEEE733iiiiiiiiiiiiiiiiiiittttttttt887EEEEEEEEEEEEEEE",
"EEEEEEEEEEEEEEE7333iiiiiiiiiiiiiiiiiitttttttt8887EEEEEEEEEEEEEEE",
"EEEEEEEEEEEEEEE7333311118800008888qq8888qqqq88887EEEEEEEEEEEEEEE",
"EEEEEEEEEEEEEEE6333211111880088888qq8888qqqq88887EEEEEEEEEEEEEEE",
"EEEEEEEEEEEEEEEEEEEEEEEEEEEEEEEEEEEEEEEEEEEEEEEEEEEEEEEEEEEEEEEE",
"EEEEEEEEEEEEEEEEEEEEEEEEEEEEEEEEEEEEEEEEEEEEEEEEEEEEEEEEEEEEEEEE",
"EEEEEEEEEEEEEEEEEEEEEEEEEEEEEEEEEEEEEEEEEEEEEEEEEEEEEEEEEEEEEEEE",
"EEEEEEEEEEEEEEEEEEEEEEEEEEEEEEEEEEEEEEEEEEEEEEEEEEEEEEEEEEEEEEEE",
"EEEEEEEEEEEEEEEEEEEEEEEEEEEEEEEEEEEEEEEEEEEEEEEEEEEEEEEEEEEEEEEE",
"EEEEEEEEEEEEEEEEEEEEEEEEEEEEEEEEEEEEEEEEEEEEEEEEEEEEEEEEEEEEEEEE",
"EEEEEEEEEEEEEEEEEEEEEEEEEEEEEEEEEEEEEEEEEEEEEEEEEEEEEEEEEEEEEEEE",
"EEEEEEEEEEEEEEEEEEEEEEEEEEEEEEEEEEEEEEEEEEEEEEEEEEEEEEEEEEEEEEEE",
"EEEEEEEEEEEEEEEEEEEEEEEEEEEEEEEEEEEEEEEEEEEEEEEEEEEEEEEEEEEEEEEE",
"EEEEEEEEEEEEEEEEEEEEEEEEEEEEEEEEEEEEEEEEEEEEEEEEEEEEEEEEEEEEEEEE",
"EEEEEEEEEEEEEEEEEEEEEEEEEEEEEEEEEEEEEEEEEEEEEEEEEEEEEEEEEEEEEEEE",
"EEEEEEEEEEEEEEEEEEEEEEEEEEEEEEEEEEEEEEEEEEEEEEEEEEEEEEEEEEEEEEEE",
"EEEEEEEEEEEEEEEEEEEEEEEEEEEEEEEEEEEEEEEEEEEEEEEEEEEEEEEEEEEEEEEE",
"EEEEEEEEEEEEEEEEEEEEEEEEEEEEEEEEEEEEEEEEEEEEEEEEEEEEEEEEEEEEEEEE",
"EEEEEEEEEEEEEEEEEEEEEEEEEEEEEEEEEEEEEEEEEEEEEEEEEEEEEEEEEEEEEEEE",
"EEEEEEEEEEEEEEEEEEEEEEEEEEEEEEEEEEEEEEEEEEEEEEEEEEEEEEEEEEEEEEEE"
};
