/* XPM */
static char *result[] = {
/* columns rows colors chars-per-pixel */
"64 64 79 1 ",
"  c #251909",
". c #271B0B",
"X c #291D0C",
"o c #2A1D0D",
"O c #2B1E0E",
"+ c #2C1F0E",
"@ c #2D1F0F",
"# c #2E210E",
"$ c #30200E",
"% c #30210E",
"& c #2E2111",
"* c #302010",
"= c #302312",
"- c #342512",
"; c #352613",
": c #3B2915",
"> c #402B13",
", c #432B13",
"< c #402B16",
"1 c #6E442B",
"2 c #6E442D",
"3 c #70462D",
"4 c #6B4131",
"5 c #784336",
"6 c #704930",
"7 c #754930",
"8 c #7B4F34",
"9 c #815435",
"0 c #82543A",
"q c #84563C",
"w c #895A3A",
"e c #895B3A",
"r c #8B5A3C",
"t c #905F3F",
"y c #915F41",
"u c #915F44",
"i c #976041",
"p c #9D6447",
"a c #9D6A4D",
"s c #9D735D",
"d c #A36B48",
"f c #AB775B",
"g c #AD775B",
"h c #9E756B",
"j c #98706E",
"k c #A17660",
"l c #AB7C63",
"z c #AB7D67",
"x c #AB7E67",
"c c #AC7E67",
"v c #AD7E67",
"b c #A77B69",
"n c #AA7C68",
"m c #AE7C68",
"M c #AD7F68",
"N c #AC7E69",
"B c #AE7F68",
"V c #AC7F6C",
"C c #B47C63",
"Z c #B07D65",
"A c #B07E67",
"S c #B47E67",
"D c #B67C68",
"F c #AE826C",
"G c #AE816E",
"H c #B0816A",
"J c #B0806B",
"K c #B1806D",
"L c #B2826C",
"P c #B5856D",
"I c #B5856E",
"U c #B78A6D",
"Y c #B78670",
"T c #B88373",
"R c #BC8A73",
"E c #BE8C73",
"W c #BE8F73",
"Q c #BE8F75",
"! c None",
/* pixels */
"!!!!!!!!!!!!!!!!!!!!!!!!!!!!!!!!!!!!!!!!!!!!!!!!!!!!!!!!!!!!!!!!",
"!!!!!!!!!!!!!!!!!!!!!!!!!!!!!!!!!!!!!!!!!!!!!!!!!!!!!!!!!!!!!!!!",
"!!!!!!!!!!!!!!!!!!!!!!!!!!!!!!!!!!!!!!!!!!!!!!!!!!!!!!!!!!!!!!!!",
"!!!!!!!!!!!!!!!!!!!!!!!!!!!!!!!!!!!!!!!!!!!!!!!!!!!!!!!!!!!!!!!!",
"!!!!!!!!!!!!!!!!!!!!!!!!!!!!!!!!!!!!!!!!!!!!!!!!!!!!!!!!!!!!!!!!",
"!!!!!!!!!!!!!!!!!!!!!!!!!!!!!!!!!!!!!!!!!!!!!!!!!!!!!!!!!!!!!!!!",
"!!!!!!!!!!!!!!!!!!!!!!!!!!!!!!!!!!!!!!!!!!!!!!!!!!!!!!!!!!!!!!!!",
"!!!!!!!!!!!!!!!!!!!!!!!!!!!!!!!!!!!!!!!!!!!!!!!!!!!!!!!!!!!!!!!!",
"!!!!!!!!!!!!!!!!!!!!!!!!!!!!!!!!!!!!!!!!!!!!!!!!!!!!!!!!!!!!!!!!",
"!!!!!!!!!!!!!!!!!!!!!!!!!!!!!!!!!!!!!!!!!!!!!!!!!!!!!!!!!!!!!!!!",
"!!!!!!!!!!!!!!!!!!!!!!!!!!!!!!!!!!!!!!!!!!!!!!!!!!!!!!!!!!!!!!!!",
"!!!!!!!!!!!!!!!!!!!!!!!!!!!!!!!!!!!!!!!!!!!!!!!!!!!!!!!!!!!!!!!!",
"!!!!!!!!!!!!!!!!!!!!!!!!!!!!!!!!!!!!!!!!!!!!!!!!!!!!!!!!!!!!!!!!",
"!!!!!!!!!!!!!!!!!!!!!!!!!!!!!!!!!!!!!!!!!!!!!!!!!!!!!!!!!!!!!!!!",
"!!!!!!!!!!!!!!!!!!!!!!!!!!!!!!!!!!!!!!!!!!!!!!!!!!!!!!!!!!!!!!!!",
"!!!!!!!!!!!!!!!!!!!!!!!!!!!!!!!!!!!!!!!!!!!!!!!!!!!!!!!!!!!!!!!!",
"!!!!!!!!!!!!!!!&#%%++++++**XXXXXX.  ....O++++OOO&!!!!!!!!!!!!!!!",
"!!!!!!!!!!!!!!!&%%%+++++****XXXXX   ....+++++OOO&!!!!!!!!!!!!!!!",
"!!!!!!!!!!!!!!!&%%++++++*****XXX    ....++++XXOO&!!!!!!!!!!!!!!!",
"!!!!!!!!!!!!!!!&%%++%%++*****XXX    >>...+++XXOO&!!!!!!!!!!!!!!!",
"!!!!!!!!!!!!!!!&%%++%%$***++XXXXXXX>><<...++XXO+&!!!!!!!!!!!!!!!",
"!!!!!!!!!!!!!!!&#++++$$**+++XX--XX,,<<<<..@@XXX+&!!!!!!!!!!!!!!!",
"!!!!!!!!!!!!!!!&+++++++++++------,,,<<<<@@@@XXXX&!!!!!!!!!!!!!!!",
"!!!!!!!!!!!!!!!+++++++++++------,,,,<<<<@@;;XXXXo!!!!!!!!!!!!!!!",
"!!!!!!!!!!!!!!!o+++%%UUWWWWWWEEEEEEEEQQgggg;;XXXo!!!!!!!!!!!!!!!",
"!!!!!!!!!!!!!!!o++%%UUUWWWWWWWEEEEEEQQQQgggg;;XXo!!!!!!!!!!!!!!!",
"!!!!!!!!!!!!!!!o++%UUUUUWWxxWWWEEEEQQQQQQgggg;;oo!!!!!!!!!!!!!!!",
"!!!!!!!!!!!!!!!o++PUUUUUUxxxGWWEEEEQQQQQQvggga;;o!!!!!!!!!!!!!!!",
"!!!!!!!!!!!!!!!==xPIIIIPxxxGGGEEEERRQQQQxxxfaaa;=!!!!!!!!!!!!!!!",
"!!!!!!!!!!!!!!!=xxxIIIIIxxxGGGGEERRRRQQRxxxxaaaa=!!!!!!!!!!!!!!!",
"!!!!!!!!!!!!!!!=xxxxILMxxxxxVGGGssRRRRRRRxxxxaaa=!!!!!!!!!!!!!!!",
"!!!!!!!!!!!!!!!=xxxxJxxxxxxxxGGmsssRYBxxxxxxxxaa=!!!!!!!!!!!!!!!",
"!!!!!!!!!!!!!!!=xxxxcxxzxxxxxGmDDsssBzxxxxxxxxxa=!!!!!!!!!!!!!!!",
"!!!!!!!!!!!!!!!=IIxzFxxxxxxxNmDDRRskbxxxxxxxxxxx=!!!!!!!!!!!!!!!",
"!!!!!!!!!!!!!!!:IIIMxxxxxxxxxDDRRRRnxxxxxxxxxxxx:!!!!!!!!!!!!!!!",
"!!!!!!!!!!!!!!!:pIIHxxxxxhxxADDRRRRKxxxjxxxxcxx9:!!!!!!!!!!!!!!!",
"!!!!!!!!!!!!!!!eppCCIICCCZxCDD4444TTTRRRRRRRdd999!!!!!!!!!!!!!!!",
"!!!!!!!!!!!!!!!eppCCCCCCCCCCC444444TTRRRRRRxdd99e!!!!!!!!!!!!!!!",
"!!!!!!!!!!!!!!!eppCCCCCCCTTC44444444xxRRRRxxdd99e!!!!!!!!!!!!!!!",
"!!!!!!!!!!!!!!!euppCCCCCCTT5444444445xxRRSxxdt99w!!!!!!!!!!!!!!!",
"!!!!!!!!!!!!!!!7uuiillCC5555555555555555CCxxtt00w!!!!!!!!!!!!!!!",
"!!!!!!!!!!!!!!!7uuiiilll5555555555555555lllttt00r!!!!!!!!!!!!!!!",
"!!!!!!!!!!!!!!!ruuiiiilll55555555555555llltttt00r!!!!!!!!!!!!!!!",
"!!!!!!!!!!!!!!!rryiiiiilli555555555555tllttttt000!!!!!!!!!!!!!!!",
"!!!!!!!!!!!!!!!733iiiiiiiiiiiiiiiiiiittttttttt887!!!!!!!!!!!!!!!",
"!!!!!!!!!!!!!!!7333iiiiiiiiiiiiiiiiiitttttttt8887!!!!!!!!!!!!!!!",
"!!!!!!!!!!!!!!!7333311118800008888qq8888qqqq88887!!!!!!!!!!!!!!!",
"!!!!!!!!!!!!!!!6333211111880088888qq8888qqqq88887!!!!!!!!!!!!!!!",
"!!!!!!!!!!!!!!!!!!!!!!!!!!!!!!!!!!!!!!!!!!!!!!!!!!!!!!!!!!!!!!!!",
"!!!!!!!!!!!!!!!!!!!!!!!!!!!!!!!!!!!!!!!!!!!!!!!!!!!!!!!!!!!!!!!!",
"!!!!!!!!!!!!!!!!!!!!!!!!!!!!!!!!!!!!!!!!!!!!!!!!!!!!!!!!!!!!!!!!",
"!!!!!!!!!!!!!!!!!!!!!!!!!!!!!!!!!!!!!!!!!!!!!!!!!!!!!!!!!!!!!!!!",
"!!!!!!!!!!!!!!!!!!!!!!!!!!!!!!!!!!!!!!!!!!!!!!!!!!!!!!!!!!!!!!!!",
"!!!!!!!!!!!!!!!!!!!!!!!!!!!!!!!!!!!!!!!!!!!!!!!!!!!!!!!!!!!!!!!!",
"!!!!!!!!!!!!!!!!!!!!!!!!!!!!!!!!!!!!!!!!!!!!!!!!!!!!!!!!!!!!!!!!",
"!!!!!!!!!!!!!!!!!!!!!!!!!!!!!!!!!!!!!!!!!!!!!!!!!!!!!!!!!!!!!!!!",
"!!!!!!!!!!!!!!!!!!!!!!!!!!!!!!!!!!!!!!!!!!!!!!!!!!!!!!!!!!!!!!!!",
"!!!!!!!!!!!!!!!!!!!!!!!!!!!!!!!!!!!!!!!!!!!!!!!!!!!!!!!!!!!!!!!!",
"!!!!!!!!!!!!!!!!!!!!!!!!!!!!!!!!!!!!!!!!!!!!!!!!!!!!!!!!!!!!!!!!",
"!!!!!!!!!!!!!!!!!!!!!!!!!!!!!!!!!!!!!!!!!!!!!!!!!!!!!!!!!!!!!!!!",
"!!!!!!!!!!!!!!!!!!!!!!!!!!!!!!!!!!!!!!!!!!!!!!!!!!!!!!!!!!!!!!!!",
"!!!!!!!!!!!!!!!!!!!!!!!!!!!!!!!!!!!!!!!!!!!!!!!!!!!!!!!!!!!!!!!!",
"!!!!!!!!!!!!!!!!!!!!!!!!!!!!!!!!!!!!!!!!!!!!!!!!!!!!!!!!!!!!!!!!",
"!!!!!!!!!!!!!!!!!!!!!!!!!!!!!!!!!!!!!!!!!!!!!!!!!!!!!!!!!!!!!!!!"
};
