/* XPM */
static char *result[] = {
/* columns rows colors chars-per-pixel */
"64 64 32 1 ",
"  c #CE4607",
". c #CF4807",
"X c #CD4508",
"o c #CF4B09",
"O c #D04707",
"+ c #D14A07",
"@ c #D04709",
"# c #D34D09",
"$ c #D84F09",
"% c #CF500C",
"& c #D5540B",
"* c #D9550A",
"= c #D65A0E",
"- c #DA5C0D",
"; c #D65E10",
": c #D85F10",
"> c #DC610E",
", c #D66212",
"< c #DA6411",
"1 c #D76815",
"2 c #DC6B14",
"3 c #DA6E18",
"4 c #DE7116",
"5 c #DD7319",
"6 c #DE7A1D",
"7 c #E06711",
"8 c #E06D14",
"9 c #E07216",
"0 c #E17619",
"q c #E17B1C",
"w c #E2811F",
"e c #E38321",
/* pixels */
"&*=&-====<222<1,>>--**$&.+++o+OOO#***--<<222,,,,,;;=-&...$$***-*",
"->--->-;,2922<<27>--***$#.  XXX #***--><822,1,,;,;=;>&&.&++&&**-",
">>>>77<<<992228<7>>***$$##++OXXO#*****>>>8<>,;=;,===>&%++$$&***>",
">>77778<2882<877>>-----$**&#O+O##**$&*-><>>,===%====&*&&&$&$**--",
">><778822782277<>-*-*>-***&#oXOO#$$$#*-->*===%==%=&===&&&&$&**--",
">7788888282<<7>>>-**-*-&&-&#oXXO$$$#+#**-&%====%=;>>>>==*******-",
">7789999882<<7>>-**-----=&&oooX ##$+OO$$*&%&%%%&==>>=>&&***$$**-",
"*>2890999988---*****-*-=&&&&&oXXO++##O#O&%%,%%===,,,=&%&&-&&&***",
"=;<240q99982<:-&+$&&&&*-=&&&#o  OO+#$$$#&$&=-=&&=,>,,&=&&=&&&&+&",
":<2050q4092:--*&&&&&&&>>>>,=%oo O$$$$$$$&->>,,>==>>>,,,=&==&+&&,",
"<220qqqq52<:;&*&&&&&&=<2<>,*&&..#$$***-->>>>>>=->22<1<<>==&%&&*=",
">222425532;;=&#&&&&%*><<>,=&=#&.$*$$$*-->7<2<>=,>2<2421,%%%%+&=>",
"><2221222,;&&#&&&&=&,<<<>=&%%##.$**$**->><2>,=,=,2>2442,=%%##&=,",
"-,>22<<<2<;-;&&=>>>=,><<,=&%#+%&#$$$$-->>>>2=&==>>2422>&%%%+%+&-",
"===><,;=-,=-:-&;>=,,>,,,,%%%#&&$O###**-->>,==&===>722>;&%%%&%.+&",
"&=&===&&&--&-=&;=,,,>,,;===&%$&.O##$**=&=,=&=&=%&-<<,,=%%#&#.%o+",
"o&&&=&&&&&*&,-=,,112211,<>,=&&#o..$&*&&&=-&&%%%#&=->>--&&&&$&&oo",
"%&=**&&&o&*=-=><1244454282>=&&*&&+$*****&%=%%%##o=->>-*=&&&=&&&&",
"&&&=*&&$&.&*>=<>1455wqw5592=&=--****>**&&%&&&...$*-->-****-**-=&",
"=&&=*&$&$+&->>1224wwwww6042=%=-*-*-*>**&&%%#.&&+#$*--->**>-*--==",
"=>=&&&&&&+&*>><226wwwww6q42>==**>-----**&&&..&$+##&$*------,>,==",
"=,>--*&+++$--><246wwwww6642<==->->>>>*-*&&+&&$&&+o#$-**=>>>>><=,",
">,---*$+.+&*-->,15wwwww6542<=&-->>->>>>***&&$&&++..#**->><>222><",
">,,>-&&++$$**>>,,455ww65221>=&&&*-->>*>-->****&. o #$==>>222222<",
",,>>-&..&$***>--,,14555311,=&-&&*->->--->>>***&.++&%%&><<299988<",
"1,,=>&+..&**---*,,1133352,%&=**->>777><>>7>--&..&&*&>><890000942",
"2,>=*&$$$***->-==,,,15422==%#&*-7778799982,--&&&.&&->>8800qq0624",
"2>>=-**$$**-*-===;,,,241,=&o&=>>778990q098>>=&&..&&=><86000q0584",
"2<>>>>**&***>*-==;,,,<>,,=&#&==>2206qwwq54<==&&&&&&>>14466444222",
"827>>>-*****>-=&=;,,<,,==&o&&&-<<20wwwww542,==&%&.&=>22955414222",
"2827>>----***==&;,<><,,=&oo$*=><3566ewwq52,,,&&&&&==2225541,<,<2",
">>77>>-***&*&-,,,1121>,&o&&#=*><235weww01<,,==--=->,<221343111,>",
">>>>>-*&&=&&&&,112421<,%%+&%%-=,2566qeq63<<<---=-,>,<422254211>>",
">>>>--=&>=&&,,,125541<==&&&&--,,36eeeq0582,<<>----><222222241222",
"2<>>**->--==,,,34541421<,>---=,<35qqeq0927>-->>:-->72>,<12494222",
"8>>>->-*->>=,=,155555552,>=--&>,23qqq0927<-&-*-*->77<2<,11259497",
"8>>>--&--->=;;,1453355541<-&=&,,23909982>--*&##&->-777<,<2994999",
"2>>>-&*&&>==;;;1153566w52<==&=,,2333287<--***##**>7-77>,,2299997",
">>>-*&*&*&&=;==;1135ww651,=====,::<<:,7--*&+$*##*--778>,,244922<",
">>>**&%+%+&=%=;;,33566541=,,>,>>:;;=::-*&$$$$*$$*--7>7<,<<2422<<",
">>>%&&&+&&+&&&=;;1555551,,<2>>=&===&&=&#&*$$$@$$$*--><-,<>22<2<>",
">>=&&&&&&&&&*%&&=125153,,<<>>>>&&&=&&###**$+$$O@$*----=-,221<12<",
",=&&&****$&&&&===,1442112,>>>>--=&&&&#+$*$$$@@$+$$**-*=,12211222",
",>>&=-**&&&&&*&-=;112221<>=>*>>&&&&##OO+$$$$$@X@#$*&&&&,1222112,",
"1<,,--*-**&&&&*=*-27982<<>>>>>>==&&oo#+$$$$$$$@++&**&&==<3553311",
"21>==*--**+&&**-->>>2>2>>>>>>>===&o&&#$#+$$$$@$++#***&==22556533",
"12,==>-**&&%*****>>>>>>->>><>>,>=&&&&&$#$$$$$$$+++$*&===12566653",
"421====&&&&+*****-->>>>->>2<>>,====&&##+++++$$##+$$*&&&=,1366w63",
"53,;====&&&&&&&&**>>>>>->>2>>>,,,->--*&O#####**&+#$$*$$%=,136666",
"531,;;;;-,*&&&***>*>>>>-><2822==>,>>--*&##***#**$#+&***>>,,45666",
"6311,2<>,>&&&%**-*>->>>,><822<,,<>----***##&*&****&**--><>115666",
"655534,,=&%%&******>-**><2822<<><-*----&*&&*-:-->*****-->2,<1555",
"5609922,=&&&&*-***-&===,282222<,==%&&&&&&&&---:-*>*-***>->,,,125",
"5ww693,,=&->>**>>-=-==,<882222>,=%%&&&o&*&&=-,<<>*-*&&**-=-,=,15",
"400093<<;,>>>>>>-*-,>>,1221,,2<,=&%&&o&==&==:<7<>-&&*#$$*&===;14",
"228222,,,>>>>>>*&->>>1=,,21,,<>,=&%ooo&&&&-,,22,=&&&###+O&&%==,>",
"=;,,<,,;,>>>>>>&==>>=<,,,12<>>--=&&&&=&%===,,<,;,--&$+..oo&&&=;=",
"=>,=,,==>,>><==>>>>,,=,<>222<>>-===&&=>,>,,,,,1<<>-*$O+#**&&==;;",
";%======>>,>=>,>2>>,===,222927>--=&&=><<>2,,,,222>>-&#+*****%=%;",
"==%%%&===,-==><<>2>>%%,,>27277>>>-=&>>99144<122227>*&#$*-----;;=",
"%%=%%%===;;=,2<227<-&&===2><>>>>---&=>2429211122827-&$$**---,>>=",
"=%&%%=%===,<<12897>,%&&&&&>>>---*-*-->>224411154987-*$&***->>>>=",
"&&=&%%%==;><22228>==&oo&&&$*-**&&&&,=>2221211252227>**$****>>>--",
"%&=&==;%=;,222221>==&&#.o$*&&$$&.&**-,><21111121<>>-*$$$***->->="
};
