/* XPM */
static char *result[] = {
/* columns rows colors chars-per-pixel */
"64 64 34 1 ",
"  c #CE4507",
". c #CF4907",
"X c #CE4608",
"o c #CF4A09",
"O c #D04707",
"+ c #D04907",
"@ c #D24708",
"# c #D34D09",
"$ c #D94F09",
"% c #CF500C",
"& c #D5540B",
"* c #D9540A",
"= c #D65A0E",
"- c #DA5C0D",
"; c #D65E10",
": c #D85F10",
"> c #D7600F",
", c #DC610F",
"< c #D66212",
"1 c #DB6411",
"2 c #D76916",
"3 c #DC6B14",
"4 c #DA6F18",
"5 c #DE7117",
"6 c #DD7319",
"7 c #DE7A1D",
"8 c #E06610",
"9 c #E06D14",
"0 c #E17216",
"q c #E17619",
"w c #E17B1B",
"e c #DF7F20",
"r c #E3811F",
"t c #E28321",
/* pixels */
"==*=*====2555425331,==*#@#&#o#+o+#$**=*>>>,<==;==;;&=$o..$-&---*",
"--=*-,,=,3556555031>--**#@XXX   #&****-,83,>=;=%=%=;-&###+##$&--",
",,,,,83,,5055555981,--**&&##@ XX#$****-8,8,==;==;=&==$&##$$***--",
",-88,83,35555055388,----*=*##oX##***#*-->,,==%%=&=====&&&&&$-*-*",
"-,188939930339031,----8=--=&oXo@#*$$$**->===%==%%;>=>>==&*&&**--",
",,8330005033308888-88,,-::&%oXXo$$$#O#***=#===%&=<,,3,,=---*$**,",
",8800qqqqq03333,---,8,,1:=&&#oXXO#$@OO#$*&%&====<<3331===--*$**-",
"*880qwwwwqq0,,,------:11:=;&&%o O##@@#+#.%&&%===<12,,<<==-=*#*$*",
";;<67wtwwrw331,*&**===>1>>==%o..O@#@$$####&*>>>>>2332<<>=>=%&&%&",
":33wttttrr733,==&&&&=:<331<=&oo  #$*$$$$*->,,,>>2993452<<>==&&=;",
"136wrtttr7521=-&=&&&=:305,>==%o.#$$$***--,,,111130755664<==%&&==",
"193677e7762<<=&=*&&&*<1811===##.#$*$****,8,,>1>23057w762==%%&&*=",
":1906667661<==&====&>1,2,==%%###$$$$$**--->,>->>1567w76<;=&%o&=-",
":1<333666311==&&--===,>><=%%o%###$##$*---->>-&=>9907765<;=%%o&==",
"*;:<22<233>>>=&=-===>>;>=%%&%##$O###$***----&&>=>90764<;%%&&ooX&",
"#=*===;&;-==-=====<==>=====&&&&.O+#$*$&##*=%&&===>9922<;%=&&#oXo",
"o#=&=&&=&==*=-===<<<1<-=>-==&&##..#**&##&&&%%&&&=>1933,*=&*&&#%.",
"&o&*=&=&#&*=*=--<1133132831=&&=**#****&*&%#&%.%&&>138,>-=*&*&*&#",
"##&&*&$#&+&*-=--<13500q9333-&=---***-**&&.&#%..%&-,18,>&*--****&",
"&&#=*&#&#+**,>,<<3qqqwqq033===>---,---**####.##&%&-,->,*=>-*=-&&",
"&*&$&&$#O+*---,1157www75552>==-,,88,--***&.##*&##&**,---->,*>*&&",
"==--*&###O#*--:13qqwwww7533,>=-,,,8,,-**&&####&#%##&----,=--,-==",
"====-&$#OO$**-*:,567rw775533==,,,8,,,,--*******#+.+#*-*-,,-,,,==",
"=>-*&$#+@#$**-:=<357776543,>====*,,,,-,->-****#%...#$*---,3121>=",
"==-=*&..##***,-:=<2666442<<===&*,,,,,,>>,,,-**#.##&&&*->>,93,,3-",
">=*=*&..#$$*---*;<22666722=&=---,88,,1,,,8,-**#.#&**--,33990031,",
"1--=&#$$$$$*-->=<22246764;&%&**,,,88399938,,-&&%%#&*-13800000933",
"3>==**$$$**---->><2224632;=&&-,,88399000591>-&&&##&->190000q0933",
",,,,--$$$**--><=<<222331<=&o==->>30000wwq91>=&&&%%&>,8355q441313",
"838,,---*-*-,,=>1222432<;&&%&&-11195www053>>>=&==&*=1356q52231,3",
"3888,-,----->>><2446321;&%#&*=-,3195www05>>>=&&&&===2345662<2>>3",
",,,,,,,**-*=>>444666431=&o&#**-=>1390r092>>>===*=,,>1334665<22<,",
">,8,>-*-====<22467e632;&o##&&=&=>95355591,,>---==,,,30636663231<",
",,,,---*>>>>2444e77632:=&&#&*&=-130060033,,>,,-*--,,333646563499",
"938,>->,>,<2227reee363<:;=***&==13900933,,>--,,--,,2332246qq0004",
"838,>-->,1222447eee46431==*&&&==>135991,---*&*&--,,38334246ww009",
"983,>-->>,3122266e444031:=*##&&=>11313,,-**####$--88,03<297wwwq0",
"9,8,=--*>,112224444444031-$&#&&=,>,,,1,,-**$$#+$*--,893<24qwwq00",
"3,,,-&&&>=>><<<242246001<&&&*=&===>-*-,***$+$$$#**,8383114660439",
"1,,*-&&&&&>><;<<2232432<;&&==*=*&&&&&-*$#$$$$&$$$-*88,,>13004331",
",,>&*=&&&&&>>=>=;2312<<:===--**==&&%$&##$&*#$@$@$**:,:::2133232:",
">,-=&*&*&*&&&===;;2321;:---,--**&&&&####$$$#$@@@@**--&=::923:348",
">=*&-&---&&&=&>===;11<::>--,,-===&&%####$$$$@@@@$$&$*==:2131:23:",
">>>&&-&--*&*&&&-==:<11:=>-------&&&#o#.#$$$$$@ O@$$#$$%;:112::2:",
"11>&>----&#&$&&&*-,,881=-=>,>,,>>=&%%###$$$$$OO@@$$#$%&&::223::;",
"11>>-*--**#&&**-*--,8-8--,,,,,,2>=%=&##$$#$$$#$O@$**&$&=11824322",
"<1>=>>*--&.#-****---,,--,,,931>1>===-&$$#$#$$$#OO@$*$$&=:129442:",
"21>&&&&&*&#.******,-----,390352>>>>>=&&###$#$$#+@#$#%$%%&::39942",
"<<>=%==&&&&##&****---,,,,3533422,33,,*&$@*#&#$**##$#$$$.&=><3252",
"32<==&=&&-*&#&&****-,,,-,5505533q333,,-=&&***=**###$$$$*===,3555",
"32<<>>>>=*&#.#***-*-,,-,39q0764553133,-**&=*==-=******-*>->>3354",
"52322>-==&%.##&*&*--***,15q566533,>,,-,**&*=-8,->--**--->>-=>325",
"56093>==&#********&*&==<355666522=;==&&=-&=>,,11>,---***--=>>225",
"07009>==&%&*-*---**====139535653>===&&&&==*>>131,--*****-=><><25",
"000931>-&&*,-----&=-->;<35235651<>%%&%&&&=->>333,-=&*#****==<>25",
"3331>>=&*>-,-,--=*--=>=<>3222322<=%%#o&&&=-<<331>-=&#####&==<<<2",
"><>>===&=-,--=>*=->-=;=;>>53232,==&%&#&%&==<=1<>=--*#+++##&=;<<<",
"<=>===&==-,,,->,,,,-===<2235391,,=&&&=====-=<;<,,,--*++#*===;222",
"<===&&==>>>,>=,3,31>=%=<129990,,,==&&,,,-:;===<,18--&#$*--,:;<;<",
"<=%%%&%&=->>>>35393>%%=<,3998388,>&&--,,,8<=;<23,---##$*--81312<",
">%=%%%=&===>>255003>%===,,38,88,--*$&,,,,3>;;;11818-##**--88993<",
"===%%&&===<25557q0,>=#=&&=,,,,,-*-*&&-=,,11==;1388--*#****--181<",
"====&%%==<>55657q5>>=o#&&&*-,-**&&&-*=--><<=<<11,88-*#$$*--8818<",
"&==%&==%=<256555522==&#o##$***&##%&*=*>,><==<;1=--*-*#$$$**-888-"
};
