/* XPM */
static char *result[] = {
/* columns rows colors chars-per-pixel */
"64 64 42 1 ",
"  c #CF4708",
". c #CF4A09",
"X c #D14606",
"o c #D34A07",
"O c #D34D09",
"+ c #D5540B",
"@ c #D9560A",
"# c #D65A0E",
"$ c #DA5C0D",
"% c #D65E11",
"& c #D85F10",
"* c #DC620E",
"= c #D76213",
"- c #DA6412",
"; c #DC6B15",
": c #DB6E19",
"> c #DF7017",
", c #DE731B",
"< c #DE791F",
"1 c #E0670F",
"2 c #E06710",
"3 c #E06D14",
"4 c #E17216",
"5 c #E1751A",
"6 c #E27B1D",
"7 c #DC7720",
"8 c #DF7B21",
"9 c #E17E21",
"0 c #E4811F",
"q c #E38324",
"w c #E58926",
"e c #E28728",
"r c #E58C2A",
"t c #E7912D",
"y c #E8932E",
"u c #E79531",
"i c #E89631",
"p c #E79833",
"a c #E99B34",
"s c #E99F38",
"d c #EBA037",
"f c #EAA139",
/* pixels */
":>,:56998ereeq<<6665544:;-:--=##+#*#**#-*1;-==%==>>>:;=;;>0;00>>",
"55,60wqqertreq0q06655555>;--#%##*******;41---===;==00:;=;=-;-1>>",
"5600wwtwryyewqq006566655<>::==%%******;1>>3===%=;=;>0;:=;;-;3;>>",
"550wwtytttteqw0<66660q0q0<<>;=%%*******1131=#%%%=;=>:,::>>;;333>",
"466wwyiittrqq00<66469qwqq08,====***@#*****=%#%%%=;;,0,::>>;111>>",
"46wwyiiytrwq00655556qwweqq8,:=%=****+#**=#*#*=%==>,,00q:>>33-11>",
"50wwyiaittw006554459qwereq7,:==%***+++*#*###%%==::0000:7>>>-=*1;",
"35qwyaaiutr06,4>34469wrreq8<,==#++@@+@@+#+#%#%=-:0,0:0::,>=***=-",
":,8eupapuyrq<,>;-;:799eee887:=%++##@@@$@@*#*----=707077::,===%%=",
":7qtusaupyr<<,;---;:88etree7=%%++#**@@1@@***-;;>77070q77::;==%=;",
",9erpassurq<,;;-=;::79rtte87:=%+#@#*$1***1*;;;;><00q0qq7:=:==*;;",
"5qeeruppte0,:;-*;-=-79eee87:==++@#*@1@*$****-;-::0qqeeq0:=====;;",
",9eweerte0<:;=----;;,7977,:%%%%+***@***$*$*$**=;:<00ee0,:===#;;>",
"599qeeeer0<<:==-3;;;;,,7:-%%++%+@@##$****@$*#+=;<000e0,;:=====;>",
",,79eq8q0<<<>;-----=;;=:=%%+++##++*#**=$@@@###%=;:00q<7===;==%%;",
":,,,<<::,,>:>:;;;;-====%%%%+#$$##**=**$@@#$O+#%==;70,:::=:=;;===",
"-:,:,:;;::3:-4:-:3;--=&#$$=$##%%%--2;-=$###..+%+=;>,>>>;-;;;;:=;",
":-::;;:-&-:44::3::::;-*=--*$%%-:::555:;-###++++%%=>5>4>>;>>>;>;:",
";-;;;-==%%-::37:,54,3;32221&%;55996qq5,--%##%+++=*>343--;>4;4<>:",
";-=;-=$$$%-399599:55443;-2-=%:59eetwww6,;=%%+%###=***;;;;44>>>:;",
";;*=*$$#+%-5499966664>;;-2--;:<eriiitrq<>:=%$&$$#@#****-1>>>4>;;",
"---*$$$++#&334596006,53;;;4::<qtiaddpywq7>;--=-$##+#****3*;;>;;;",
"--*$$@++O+&-34,,>6666>:3;;,,,8euassdsytrq6,>;-=%+++++****>->>>=-",
"--*$#+OoO@&&-4::>>,,>4:-;;:,,7erpafsfyyree8,5:;%+++++@@**3;>>;;;",
"==$@@@oXO@$$23-=;::::;;;=;;;,qqeissssiurtrw6<>:%***++****;4>>3;*",
"=+$+@@oXo@$$22--=-=;:;;::;=:<qetasssaiuuttr00,:-==******3>4444;;",
"*$+@ooooo@@*22-%;:==;:>>:===>qwtiiaaiaautyeqq7,:==--*-*>>4444>*;",
"-=#@o@@oo@@**---==:=-:>>;;=:><0ryiiiiiiiyteqq,<>;;*;-;3>3>444>;1",
"**$@$@@@@@@***-&===;=;--;===:,<w9rttryyytreqq<<>:=;:>>;;>>;-;*;*",
"-*1*1@@@@@*$2-&-=;=;;==*=##=;:>09999wwwweq0q0<<<::;:;>>>>>=-*=-1",
"**11@@****$*&---;:;;;;=#+++%-->,55799999q<<<<8<<,>:;;;>>>>=%=%=*",
"***111*@@1$$--::::::===+.+++=**---335555,<<<<<,<<<<:>>>;>-;*=*==",
"$*1$1$&&$&$&&::,57,:=%+O OOO+%@@&&2&:3:3:459959:5555593:::;;;-=$",
"-**1$$$-2-:::,7797,:=%+Oooo@+@@@&&&22-223::55995:5554::4:::4;=:2",
"3*2***-2::::7779977==&@OoOOO@O++@@$$**-224335555353544::::554:33",
"3322*-2-25,,,77775:&&&@Oooooo OOO+@&$**-2-3--34-344555:::5965543",
"43*1--22:59::7775:-&%@+OOoXXXXooO@@@$$222-2-&%=--33545,:>6666654",
"4133-3--453977::,:=&%@+@OoXXXXooO+@&$2222---=&$&-223559:,<6q0654",
"33*;-&-:4:5:7:=::=%%%@@OXXXXoooO++#@&&2222-$1*$$$223454:,8006544",
";3;*--&-&-477:::==&+@@@OXXXo@O++++#%&22--33-*-$#$$22454:<7q6,4:;",
";13*-;--:2:,:::&==&&@+OOOOO@@@++++%&-:;-:43;-$$@@$*23:::,<7,>:;;",
";;---;;>:::::::&&&&&@++++#&$$$$@&&&--;;:454-*$#O@@$*2-;>,<,>:::;",
"**---;;>:2:-2::-=&=&&%%%-&&22$$&-&-:;::45542*#@@@@#$$=--,:>;--;-",
"-;;-;;;>4:2:2-&&&&-:::=:-:---2:--&-:;:::554;-#+OO@@+#$#=-;;-==--",
"->>;3>333--&2&2&2232755:,,,5>>;;::-;:::4444;$$#OO@@@++##=-*===#=",
"-;;;;;>3:-&&&&$&223579996q96<,::3-&:::,34332*$@+@O$@#@+#*=*=-===",
"=;;-;;;;-&@@$2&2$3559999wrre0<,,:&::3:-;;;-;;*@+O@@$@++####*-*==",
";;;==;-*&&+@@@@$$25699rrrtreq0<::::--:;---***$$#@@$@++OOO+$=*-*=",
";;:==-==*@@++@@@**3600weryyeqq,,>>>4>3----***-*=#&@@+++ +O+&&&-:",
"::======**@O.++***;400eeryttq0<:0<>4433-=*;;;->-&&&&#%$$&++&-:-:",
"<:7;;===#@O.oo++@*;4669qwrtreq<<,>34>4;*-*-:>><,:33-222*3&&&-:59",
"<:<:;;=%+.+.oO++@$**;>:,qweeq0<,<>;;;3;;;;:><0<<9595433342:&;::4",
"<00>;=#+Ooo@OOO@@###===:<99990<,;===-----;><<eqq9999943443::::79",
"000>3=#+Ooo@@@@@#@@*#==;,,<,<<,,;==-==--;;><,qerrew99595955:::99",
"00,4;*++O+@@@@$$@+@@=*#=:,::,,>>;====#=-;;:,qeteee99999995957779",
",<,;-*+++@@@@1@$++*+####=-;;:>>>==#####==;>,<eeeeewe9994:77777:9",
":::-=#+++#*$$$$$%%*#####%->1;>;1-=###%%#==;:,0qqqrewqq8<9797797,",
"::;-=#%%#**;*%*==%*##+#%--;3>>>>;;*#%*=-*-;;:::qerrte8qqe9999788",
"7:==%$%=--;--=;:;;==#+#=;;300>31**=#*111*;--=:0qwwtreqewwrwq8977",
"::%%%%%=;:>:::54;0;;++%=;>>404443*=*%*4--;3==,,q00eeqqqwwwwwee97",
":=:%==::::,>:7660;;===--;>0>4444***#%**1-3;=-;><00wwq8qwwwwwqwq9",
":::==::::,78999q00>:==-;-;0>4431-**#*%***;-==-><0w00q6000000wq95",
":::::::7788eqqqq00>;;==;;>13431**##**=-*;--=-->><0006,500000ww95",
"::,,,7877eeeeqq90:00;;;=-1>1>1=*##**%-1---===:>;>><064445566669,"
};
