/* XPM */
static char *result[] = {
/* columns rows colors chars-per-pixel */
"64 64 58 1 ",
"  c #CE4306",
". c #CD4609",
"X c #CF4A09",
"o c #D14606",
"O c #D24A07",
"+ c #D34D09",
"@ c #D84F09",
"# c #D75007",
"$ c #D4540C",
"% c #D9550A",
"& c #D65A0E",
"* c #DA5C0D",
"= c #D65D11",
"- c #D95F10",
"; c #DC610F",
": c #D76113",
"> c #DA6412",
", c #D76817",
"< c #DC6B15",
"1 c #D76818",
"2 c #DC6E19",
"3 c #DF7017",
"4 c #DD731B",
"5 c #DE791E",
"6 c #E06510",
"7 c #E06D14",
"8 c #E17216",
"9 c #E1751A",
"0 c #E27A1D",
"q c #DD7720",
"w c #DE7B22",
"e c #E17D21",
"r c #E4801F",
"t c #DF8125",
"y c #DF8529",
"u c #E28324",
"i c #E68926",
"p c #E28629",
"a c #E48B2B",
"s c #E88E2A",
"d c #E6912E",
"f c #E8932E",
"g c #E38D30",
"h c #E69432",
"j c #E89732",
"k c #E69935",
"l c #E99B35",
"z c #E69C39",
"x c #E99E39",
"c c #E6A13C",
"v c #EAA33C",
"b c #ECA83F",
"n c #EAA741",
"m c #EBAB43",
"M c #EDB047",
"N c #ECB34A",
"B c #EEB94F",
"V c #EFBC52",
/* pixels */
"0utpfkzczzzjpw4383330utttur5442,<>7<73333333,r5ttyahhhapyiyyrrrr",
"uiahxbvcnvvjpw549885rpipptw551,,<3337333r3r34,44ttydhdpyyrrrtrtr",
"isfxbMmmnmvhpi099990ipsddytuw44233837890rrr3,,,r4ttyiyttrrrtrrrr",
"idfvbMMbmncdpr09999risdfhfdatw443588<88833<;,:,,,4tttrttyrrrrtrr",
"isjvbbMMbvxai008990rsfhhjjdat5w45337;7883<;:::::,44trttrrrr88rrr",
"isfxbMMbcxdpu099990isflkkkhyt545933<;<<<<;::;:::,4trttrtrr8r349r",
"0iflvvbvxjsu0998890idhkxkhyyt522337;>;;;;:&&&&&:,3rrrt4r4r43333r",
"0udjvvvljfir588739qiahkkkydgyt413<<>><;;:&::&&::,333r3,4333<<<<3",
"4rtdjzzfdsi043<>,<0uaghkhhapwq21><><;7>;;;&;;;:::<333,3,,33<;<;3",
"5tydjjjdspw3<<>>,34eyahxzhhpw4<,>3<7777<;<><<::;;<3<433,,,,>,,34",
"upidjjfdpr43<>>><<4qyazxzhppwq2:;77888777777;;;:<<333,3<,:,>,<34",
"iiaddddsu53,>;<><24qtahhappq42>><77<7888777;;;:;;<83333<::::,34t",
"pdddaaypu5<<>>>,<334eppapwq221::<77778887>>;:&&&;<<<337::=:,,3rt",
"iddddappu0443,,<9454qeeew41:=:>:>;><788<7;;;&&&&;;7777<=::,,<3rt",
"yyyddpttur555434444244422:1==->,;><<338<;::&&$&&&;777::==,,45,4y",
"adiyut5455545w544442222:::==-->=:,<333<;;;;$$$&$$&;;:::::,45555t",
"yyiuu5444eeeeeeweeq4<1:->---=-=>,,3553<,:==$$$$+$$;;;<;;<35tuutt",
"itput55422eeppaappee4<<>>66-=-<9555rrr33,==&$$$$$;;;<;<<35rupdap",
"yttue43472eegagspppee87>6><--<0erupiiyr4<:==&$$++;;;;;><35iiahha",
"it559<<<17eigjzggaaee876>>>-:4eeadjjffr54,:=&&&$$#;;;;<75rppaddp",
"ee04<<>>12epjjzkhhap82>->6>><2eajvvvjjit53,>=>*$$$$&;;<<90ipsdpp",
"we07<>>>-24pggzhhhsee>666><8qeajvbbvvvjat523<>>-$$$$%;;>95ruaptu",
"e42<>;**&-7eiaggpgeee7>>-><2qegxbMbMbvcjiut322<=$+$$%%;<905ppatu",
"q2<>>&$$&-2eeageeee2>-===:<eqeazcbbMbvckdayr042:&&$$$;;><0ruipuq",
"2,>-*%+O$-<7eee22211-=&&&=144eggvbmMbvcjjffuu52,,>**$&;<29ruuu04",
"<:-*%@OO+*><7971====$$$---=2eghxbbMbbczvllfsuw42<>>>;;>7900ii050",
"<-*$OO@o@%*;67,===$.+$%=--11qpslvvbbvvvvvjhapuw42,,>>>68990rur49",
"7-=%#@@@@%%;;>-$$$$.++%&&=-1qeshvvvvvvvvxjhdpuw52><<<78889909937",
">*%%%%@@@#*%**$$.$+XX+++$==-4eeggjxjfflljhdppytqq222<<<73<,,<<<<",
"6;6*%%%%#%%%%%$O$.X.Oo++$+&-22eeupagffffaaupptuwq4223<<<<<>:>&:;",
"*;%*%%%%*%*%%$$O.+++OOoOX++=27qeeeeeiiiuuuttuuwue09<3<><<:=&&$&*",
"%**%6%6%%*%$$$$$+$++OO+  X+&--62<<2290095qwuttueee02<<<;::&&&$&$",
"#%*%*%$%*&$$$$$$@%$@@o   ..@&-==-<7172242eeeepuee00282<::>:=&&%+",
"%%%;%%&*;*&&&$&&=&&+o    ..@@&@&==667727999euuie00099<<>>:--&&-%",
"%;%%**:;>;>>>&&--*$$+++ oo@@@@$=$=-;667770900eu00999<<<:>:<<;-%*",
"*;****;;><>>>==-=*$++@@+ooo.@.@@%$*;667779949999999997111<<76;;*",
";****;;;77<>:-==*$$+.@++@ooo..oo@&-6177997971<<2989999<112887>6*",
";*66;;;><8<3<:===$$$$@@@@o  ..o@@%-62299997922><7779990<44q9776;",
"*;*;;&><<<3<21===+$$@&@@@  o.@@@@=->68ee099<99<<77779099qee87>-6",
";;*;*::>,2341:1===$$=@&@o o@@@=@==-14eee9ee0797>>6799e00qqee2>--",
";6>;:><:22422>>===-==$=$@@@@-@@===12eeeeeiee42<-;7685545eee4<>>*",
";6>;><<3244eq21>:=>:--==--11--@-=:2qwegeggee8<-->>><3445eeq2,,>>",
";<>><33397e4822<,:<22qq2qq266--->>2qeeggsiee9<>=*>>><<44e442>,><",
"<<<<3333e47422<2,,3eeeyweeqqq-66>>2qeeeessie9<-=**;:><,22432::>>",
"<444333r4727612677eeghkgegewq21>1>:2ewegieee766=&*>>>>:,4<<,>>:>",
"3454545347-112627eigzcvzzzzgeq6>>-=2qqeeeeeee6>-*>;6;>>><<<>,>,<",
"25544r3927=-66624eejzvnnmnxjee2>-==2qq9eee9497>=&;6>;;:>>><<<<<<",
"4tr445337--&--6>69igznMnmmvjee2=--=222429977677->>6>:;&&&:>><322",
"55t4451,,,*&$%*;6eeglnmnnnxgee-=-->>27<<,332333<><<>>-====:,<<44",
"t5w54552<;;$$$%*64egjxnvnnxge2:=6->677<<<,3333353222772><=:<795q",
"tttt5552<&&+O+$*-79egjhhxxjee2=-***-67<<<<<3r5rteee0e00008<<45eu",
"ttytt533:&$+O+$%%-7eeeeggggeq2-&=%$*><3<<<43riyiaassuieue042340e",
"tisur42:=+@%$##%%*-<2245eee222-&$$$$&><<334wuiddkkjjhaiiiu554qwt",
"usfrr4,:$$%%##%%*%&-:,,4922->-&&$+$=::><345ttdkcvxcczjjjdiut445u",
"ryrr53>;==%%%%*%%#&*::&,61-=--%-$$$=::<3445rydccvcnnnxzkfsat545u",
"rrr53,>:--;6**%%$$%%&&&&&-=&@=&%&$$=:>,,445tidccznnmnnnzhdytw445",
",44<<<::->>6-*%%#$&$$&$$$&;;&&%%&&&:>,<,42tttahkcmNNNmnckgytt552",
"42<<<,,1<>7>>==-;&&%$$$&;;;;;;;;::;:,345r44ttydcmNBVBMMNmcdtt554",
"3,<,,<149429>->6;;;&$$&:;;<6<;;;>;>:<900445qtydcmNVVVNBNNbkpt524",
"4<,:,,1qqee2<,<7;;;;$$:,<3888877>>>>39rrrtrqttdcnMBVBNNBMbcdyt54",
"2,111qqtwwqqq42777;;&,,,343r8888<<<><900rr5qrydzmMNBNNNNbvljdir4",
"4244qwtygyyyee9037<<,,4435rrr388<<;<<3995rrq5tdznMNNNbmmbvlfsir5",
"44wwtyggghhapq075<<<,,25554rr337;;;<73595545ttahzbbMbbvvvljfdit5",
"5wttggkhhkhhie02<<<<3454rrrrr337<;<<758954445tyydkccckkjlffasiir"
};
