/* XPM */
static char *result[] = {
/* columns rows colors chars-per-pixel */
"64 64 51 1 ",
"  c #CF4807",
". c #CD4508",
"X c #CF4808",
"o c #D04607",
"O c #D44A07",
"+ c #D34C09",
"@ c #D5540C",
"# c #D9550A",
"$ c #D65A0E",
"% c #DA5C0D",
"& c #D65E11",
"* c #D85E10",
"= c #DC620F",
"- c #D76213",
"; c #DA6412",
": c #DC6B15",
"> c #DB6E19",
", c #DF7017",
"< c #DD731B",
"1 c #DF791E",
"2 c #E0630E",
"3 c #E0680F",
"4 c #E06711",
"5 c #E06D14",
"6 c #E06F18",
"7 c #E17216",
"8 c #E1751A",
"9 c #E27A1D",
"0 c #DF7C21",
"q c #E17E21",
"w c #E5801F",
"e c #DF8125",
"r c #DF8629",
"t c #E38324",
"y c #E58926",
"u c #E88B26",
"i c #E28628",
"p c #E48B2A",
"a c #E6912E",
"s c #E8932E",
"d c #E69431",
"f c #E89631",
"g c #E79935",
"h c #E99B35",
"j c #E79D39",
"k c #E99F39",
"l c #EAA33B",
"z c #ECA83F",
"x c #EBAB42",
"c c #EDB147",
"v c #EDB44A",
/* pixels */
"<<10traarddare1<87888999><<>>>--$-=:==:33,,,-:>><eeeeewe,wwwww,>",
"wttyaaaaggdar19997889ww999<>>---;=3:::577,,,::>><<eewwe,>>,><www",
"wyypflhhggjaytw99999wwyttq1<<---::3===77,w,:--->>>>weeeww,ww,,,w",
"wtusfhlhglfpiww88999wuuyyytq<>>:::5:=:553,,----->:><>w>>e,>,ww,w",
"9wushllllgaiww918899tpppppye<:>-:5====35:;-=$&&-->>w<ew,w,,,:,ww",
"9upsflllffuitw978799ypapppte<>>>,5;-===;3=$--&---w<wwwe,,w,,::,7",
"9yushllhfsyew88767qqupadarr10>--;;-=$@=;=$$$$$$-::wweewew,w;;:3w",
"89yahhhhfauw887:668qupdaarre0<>--==$==$=$$$$$----e>e<>>>,,,:;:;;",
"<<0pahjdfayw1,:;;:<qqipdari00>-&---====$=$$=-=--->,:,e>,>>:---:,",
"<tradhhsaaw<<,:;;:>qqiaddari>>-&============33::,:we>>e>>>,----,",
"9tyahhhdyr1<,;:=:::00rdgdi000-&&===:33=3:3:=;;=:,ww>ewe:->->--,,",
"ttppppsarw1,:;;;::->0qpaii0>0-*&==:=:33:333=;;-::,,w,w,e----:-,w",
"0tpppppiy1<:---;5::>0qi0q0>-&&&*====;33:=====$=--w:www::>---->we",
"ttyapiiiyw<<<:;:6>>>>0000>-&$&**==-;;33;====$@$=,::www:-----:>,,",
"1ettrr0e0w<11>:::>>::><>-&&&&***=-;;5:;===@@@@=$-:,ww->----:>--e",
"1t00e0<<<<1<<<>>>>:>-:-&&&&&&**&&-::,5:==%%@@@$$$-::,>--->e>>>>>",
"11911<>>><<<<0<<0<:::;-&***$***--:<71<:;--$@@@$@$&;,55:=:,1111<<",
"1<11<<<>::<q9qqq009<>;;;;4;*&*>6q1qtt9<>;&&$@@@@$=335:::,,911ww1",
"1<<<7::::-:8qqtq00q976:;4;4*&:qqtipaatq<>---&@@@$$3333:=,8w1wwew",
"1<<<>;;;;;6qtiptqqtq975;;;;*&<qiafhhfsi0<>--&$$$$$=-=:3:,199er11",
"9<>:;;;%&*6qtippityw86;;4;;--00pjlxlljaye1>-;;;%@$$===::7899we11",
">77;;%*%$&:qttpityy98>64;;660ipgxxccxlhaew<,::;%$@@@$===5519w1<1",
"<:;;;%%@@&;8qqqqttt98::=;6><0qdxxvvvcxljsie1<>>;$@@@@===5,,1ww1>",
"::;;%@@+@*;:7q00<1<<<:;=*;>00rpjxvvvvxzlgsyrt9<-$$@@@%@=;711111>",
"-;;&%@O @$=;69>:>>>>;-==&;:<0pdgxcvvvxxjlfsytw<-:;-=@==;:,889885",
";&%$#OO +#2;576;-------;;;-<0agxxcvvvcxxllhaye<<:;;;-;=5788ww8,,",
";%@$OOOOO##2;4;--&&&$-==;-->0pdlxxccxxxxlldaart1<>::=;35788998,,",
";%$###OOO#%%==;&$&&@$===---><tajlxxxxzxllljdprr1>>,::3555,7877::",
";%%#########==%$$$$@$$$$&-&>>etddgljjkhkhjsparrw1><>:5:;55:;:;:=",
"222#2####%%%%%&@$$@@$@@@$@&-><tiiiaafddfaaiapyree<<>,::5:;--====",
"=222#2##%##%%%&$$%$$$$@@X@@&>,10qqqiuuutpterrrree1<>,:::;-@$$$$=",
"%%%%2#2##2%%%*;%&--$$#@  +@@-;::><>>qqqq11eyryrweew<,5;==-$$$$$$",
"##2=%%%$%%&$&---:*;*&@+..oo#*-**->6>6666<qqtyttqqt9<,,:;=;=%%&%$",
"#=#=#%$==---;-::66;*@+ooooo##@@****:::66899qtyyqq98,<,:;;-;;%%==",
"=3=#===;;::-::->6;-*#@+Oo+++++##@@*2;4667989qqt99988::-;-;::====",
"3======;;,>::>>>>>-@*##O+oOO+++@#@*22;4;:77<798<79887<>;;::,:::=",
"=3=====;,,,,>>->;-*&@+#++ooo.oo+##%**466<67,>-:>676777>::>797553",
"3=33=-=;:8,,>>>-;-*@@*##+O.oooo+@#%;;66677::>:*;:667887>><999774",
"======;;:>,,<>>--&@&*###+o.o++++@@**26q6877:66;;=457898<<9998:::",
"::==---;-:<<>>---&@&@#++OOoo#+##@@**>q6q9997564*%=;5788801t9<:;=",
"=3;-=;:;;>6>>::-&-**@@@+++@####@*&-><qq0qqqq6:;$$245,<<<<qq<>:;;",
"=:=-=:::>6>0>>---&****&&&**;**#***><>0qqiiq6>:**$%;;:>><191>::::",
":=;-::,,q6<6>:::-->>>-->>-;44***;-><00qquyyq7;*$#%*;;;:>9<<:-::;",
"=::::,,,66>66:-:--66<0<1<q>>6;4;>->>00qqyuq86;@#%#%%%;-:>>>:--;;",
":,>:,,,,6;;;;;;:469qqqpqqqqq8>:;4>>><qqqqqq66**#@$%%%$--:::;---;",
":<<,,,,,6:*;;;;:669qpdddpaaqq9::>**><<qqqqq854%$#%%2%%%&:;;;;;-;",
">><>>,,,:;***2;246qqppjdfgdpqq>:*&*><><q666664*$@$2%%%$&%;=;;:;:",
"><<>,,,::*@+%%2*26qqpjjdkkfatq<:;>>;>>6;465;;;;*%%%%$$$@@$-;;::-",
"<<<>->>;;-%@@@%%=79ypfjggjgpiq:-=:::55:;;::;;::;*;;**#$@$@&*;:>>",
"<<<>>>->;%%@+@#%=:79usddgggpt<:-5::555:;;:::,:<,:;;;24*;**&;::<<",
"111<<>::;%@++++#%=,<tiiisffit9>>::=:55:::;:,<11wq88867666;;;:<89",
"11e1<<:;$@XXoO###%:,8q0qipiqq<>;==-==::,:::<1twtqiqqq99896:::<91",
"eew1<,-$@+#O++#O##==-:><qqqq6>:;-$$-%-;:,:<1etrppapiiqqq11<>><<0",
"ttww<;-$+O#######@$=&--><6q>6::;=$@---;;:,<0erasdaadpipqtw11<<1t",
"twww,;-$@@####%#@##%--&-56--;:;;&&$$--::::<0eadgfddddpppyt000<1t",
"111,,;=@$%%2#2#%#@@$$$@&&*;*;;;;&&$$&&-::<<0eaadagddadaire000<0<",
">>>---&&$%;*%#%$$@$@@@@@$=3;=--=&-$&&---:>,eeerpdjjjgddpyee0111>",
"<>>>:-&-;;5;;**%=$=$@@$$&-:3::==-==$:::::,<<,1eagjzllggdharee111",
"<->---->:>:6;*44;3-&$@$-;:377733=:-$-577>,,><1ragjzzljglhhay01<<",
"0>------<<<>::>6,33-@$&-:,77w3w333-=35w7>w<><eeaajjljglljfsurr0<",
">>--->>0>0000<>8,::;&-:-,w77777333-=-:,,<<,><1tydhlllaghhfssuyw1",
">><>>000000e0q9qw,,;;-:,:,7w7,37;3-=33,,,<<,><wraggggadgfsuuaiw1",
"><0<000rrriiiqq9w,>>:-,>>,7ww33;--=-3::,,>>>>1weyafffarasuauuiw1",
">>000prrrrppiqq7w,,,,,,>>,w,w,:-==-3-3:,::>>><1ewtyaurtttywuwiw1"
};
