/* XPM */
static char *c067952aea0d421ffdb55f2cbb029de9PXwiIjWmaRUGQy5Q[] = {
/* columns rows colors chars-per-pixel */
"64 64 90 1 ",
"  c #CE4607",
". c #CF4907",
"X c #CE4608",
"o c #CE4B0A",
"O c #D04707",
"+ c #D14907",
"@ c #D34D09",
"# c #D84F09",
"$ c #D65107",
"% c #D5530B",
"& c #D9550A",
"* c #D65A0E",
"= c #DA5B0D",
"- c #D95C0E",
"; c #D85F0F",
": c #DC5C0C",
"> c #DC5D0D",
", c #DE5C0C",
"< c #DC5E0C",
"1 c #D25A10",
"2 c #D35D11",
"3 c #D55C10",
"4 c #D45D10",
"5 c #D45E12",
"6 c #D95F10",
"7 c #D6600F",
"8 c #DD600E",
"9 c #DE600E",
"0 c #DC620E",
"q c #DC630F",
"w c #DF620E",
"e c #DE620F",
"r c #DF640F",
"t c #DF650F",
"y c #D46011",
"u c #D76212",
"i c #D76312",
"p c #D56314",
"a c #D66514",
"s c #D66715",
"d c #DA6110",
"f c #D86313",
"g c #DC6310",
"h c #DA6411",
"j c #DE6410",
"k c #DD6610",
"l c #DC6512",
"z c #DC6713",
"x c #D86614",
"c c #D76815",
"v c #D76916",
"b c #D76C17",
"n c #DF6911",
"m c #DC6812",
"M c #DC6813",
"N c #DF6C13",
"B c #D86915",
"V c #DA6A16",
"C c #DC6B14",
"Z c #DD6B14",
"A c #DB6C15",
"S c #DC6F17",
"D c #DA6E18",
"F c #DA6F18",
"G c #DE7017",
"H c #DE7117",
"J c #D97019",
"K c #DB721A",
"L c #DD7219",
"P c #DD7319",
"I c #DC741A",
"U c #DE7A1D",
"Y c #E06711",
"T c #E06A12",
"R c #E06B13",
"E c #E06C12",
"W c #E06D14",
"Q c #E06F15",
"! c #E17116",
"~ c #E17216",
"^ c #E17519",
"/ c #E17B1C",
"( c #DF7E20",
") c #E07F20",
"_ c #E4821F",
"` c #DF8122",
"' c #E28422",
"] c #E48B26",
"[ c #E58F28",
"{ c #E69129",
/* pixels */
"%%%%****4hZZd4*-:%$&@%@@O@@OXOOOO$:&-ddCZIIKKJbbvhCs6%@@O#&%&&&%",
">>-->g-ddCZZhdd-w&&&#&#@OOOOXXXX@%&:--gn!HHAHbvvvssgd=@@@@+@@&&>",
"wwwwjTjhhWWZhhj-,>&&&#@#@OO@@ XO@$&&%=gTnHHsvvysvy*d=%@@@##@&&&>",
">wrTjnnjCCTdjjw-,&&&&&#####OOX@o$&&&%&>wjjjs2yy242*-1%%@@###&$:<",
"wjjnnnTTZnndhgg=&&&#&&%###@@XX@@#&#+@$>>77w*%111****%*%%@##%#&>>",
"rjnTTTECjnhdww>=&&&&&&&#&@@@XXXO#&$#@@&&*%%%*111**--==%$%#&&&&&,",
"wnnNWT!CZjw-==:&&&#&&&&&@@@oooXX@##+OO#%=#o%%11o***>%%@$#&&%#&&>",
"*hnAWWnnMndw==&#####&#%%%@@%@@XXO+@O@O@#%o11%%%%%**%%$@@%%%@@%%:",
"*7iMZEAMnnj---%#@@@@##%%%%%%ooooO@@+###@%%4=***%$*-%%%%o@%%%@%%%",
"7qMHH!ZnMnq%-&$@@@@@@@&-*%*%@@oX+#&$#&%%:dggg=*%%&*%%%%$%$%o%o%*",
"hnnZ~!ANhd**%%$o@@@%%%6gg=3*%%oo#&&&&>>dgYCgg==3*>--****%o%*%%4*",
"rMZMnnnnd*%%%o$%%%%%%3>g3=1%%%@@##&#$:wdCWWCd633*<--w74*ooo%$%--",
"7hjMhdddd%%%oo%%%=%%4whdg*%%%%@@$&&%&>jjCRCC631%*=*<jd-%1oooo%*d",
"riind7y-d*%&%%%*d6d46xhdg*1oo@%@+$@#&>jnCCCCf&%%-<<wg-*%ooooo%*-",
"***-62**==%=-*%*ddxyxhdx1%%%@%@@++##&=-dxCxf31%%%%-w2*%%Xo@%oo@%",
"%****%%@%%%%:-44gxxszCVy2111%%%@+@@#&=**6xx61%%%o$<:%1%oooo%@ooo",
"$%*%*%$%$$%%*r*ivHPPPZVsxf61%@@XX @#&%*****1o1oo@$%=:&%@@@%@%@@%",
"*%%*&%%%@@****sAHK^/UUUI^WR3=@%&#@#&&=%=*1*1%o$X@%&::&&%@1&&%43%",
"%%***%%$%+%*rdMhFU('''''^^W6%&=&%#&&>:%%*%*%%oX@@$$::&&%=&3&=63=",
"2****%$%@@&<hnAKKU']]]'')^V4%1=@&&&&&&=%%%%%oo@+++&&&&=&=6>46g63",
"dh-*-*%$o@%>jnAPI_][]]'_)PV61#@&&:&:$>&&%%oo@$##@++#&=:=ghjdjzff",
"shhy*&%$@@%-djAPU_][[]]_)~Wf=1=&&&,&<&&&%%%%%%%@O@@%&=>-gdnYVCxx",
"Znhh-*%@+@%&-hhAHU']]]'_)WVj1@==&,,:<===&&%%%%#@OX+@&=-gCCVP^ICC",
"AVhdr%$@@$%=-rhivIUU)'/IFVx61@@%&&&:-&=<-w%-&$+@ O@@%=ddxWI^^IPF",
"vhnd<%$.@$%<:<**yvbIIKKFss-%%@@#&:>6>d4=6>>&%&@ +#%%%*qMP!~/^^UH",
"Fshyw*o@@%&&:<<*-ysbAFbPs*%%%&1&=wzjjdjYgYw=&%o@#%%*q7N!^/__'_^P",
"KMhi*%$@$&&::=*%*y2yvMAnf1oo@=&6wj!ZW~~Z!R6-=%$o.@%-qM!^/'___'UU",
"HMdj**%$$$&&=:*****2*sMd41%o@&:6gZ~/^/'^~Wzd%%%oo$%-7M^///___/P^",
"NZNrq<&$&$&$&&%%%1***7**&%@@%%3YR^))''')^!s4*%$@o%%*qAHIU`IPPPHH",
"HNNrw<:&&&&%&&o%%%%*****1@o@%16RF!)'[[]')Fdd2%%%%$%*qAHHPUIbPnZP",
"ZNkrw<<<&$&#&$%%%**7*=**@o@%&%xVP))]{{])(Fih**%%%***qMMHPHssVvy!",
"rjkrw<<%&&#@%$%%1*77y7y%@%@%=6fVF))]{{])Kns7***%-*y*7MAVHHHsvhh7",
"*wr<-=&%%%oooo%*6dhhfd3%o%%%&dyVV)]'[['(^Dfz36=3:6:gjZZVvVVMvMhy",
"7w7w-=%&=%$$%%%*dxCzxx442%%-y-VZ)'[[[[')^DzYY9g=%6YghhsnnhnNshZj",
"rr>-:&=&%=$%%%*2xZzFPFFxydw-d6sP()'[[]))~Wg66,Y=>66gjhddihAHAjnj",
"rrw<&&&%$=*%1%*2ZAFKI/PPjVd466sI(()[]))^RR63&6&:>,gYhjd42hMAAZZn",
"rq8<=$%&%&=%1o1*xCFI(`'(ICy4*2MbD))'/)^~R66&%@%3>gwYgYh4ihnNNHET",
"qr<<=%%$&=%$%11*xFI(``]''Fd42iiMDP))~^~Rg6&#%#@%=wwYgTh42dj!!nEY",
"w-=%%@@+%$$$%o%1pbF([[]'UFfdhhsACDDFVRRY6:%#$&#%&>gwTjh-*hANChhj",
"r-<$$@+ooo@%%o%1pJJ(``](KbxjnqdnffV56z5&#3&##&&#%>:YYYh47snZhhdd",
"*74%%#@.@@@@$$111bP)(`((KhCAjj**663333=@$&#####O@<>>gw64hhvxsnyd",
"r*%$%@#@@@@@%@%%usD((((IPKZWjj>*33%:%%@@&&#@O#O@%&>:g=3dhAnVsjAh",
"i*%%%$$%$@@$%#**2fP((((KIZMrj--*11%%@@O#&####OO#@$==**6dAhAAvFPx",
"i7*%%%$&&$@$%%%*4dD^P)PDAn7q----$@%@O@@O#####@OO$$&%%*34APIIFbKn",
"ZAh-=&&&$@@@#%%=%gCW!^^Vhhd-<<-*&%oo@@@@######OO@&&&&34uFK((((Kb",
"IPhy**==:&@$%%&=6gYCWWWf7qjr<>%%%@X@@@@########O#$&>&36xP((`((((",
"KKVy*7==&@@@&&&=::YgYgW6qqw--:**%@@@#O@@O######O.#&:=34sF(````((",
"UIbd*-*%=%%@%==&%:Y:6YY4qrww-<%%%@%%@@@OO#OO#O#O.##%%&32sF``{(((",
"(Kbs*y7**7*%%-&%&<<wwwd--7r-**$%%%&&$&++ #+###%@#@$$%3%3fCI('`]`",
"(Ibvvishw-*%%%<-==:-w>w-wwwr<*%%>==:>&&@+##$$$$&@@##&&46zsF)('``",
"(IIKbAAMhd*%%$%-%<>-wd--hrnqw7**=%&&&<&%$@@@%&&&$%$%&,w7CCDD((``",
"(UU(UUHAh***%%:&:%ww-6*dhhhq7-*%=%$&&$&%%@%%&&&&&<&&$<<rzCxxF(``",
"UU_/UIbvi****<*-===*d44dMMMq7q-$%@o@%$%%%#$%--**:&&&&&&->6dx5FKI",
"/'__/UHvv7hhw<w->-*g2hxxHAhrd7*%@ooo$oo%&%%*%-->:&&&%#&&==6335zI",
"KU//UPHHihqnwrw->=ddnCxnAAh7d7==%%oooo$%%%%**djq*%%&#@@#&%%3%1uD",
"nA!^^HAVMATT7r<>*-dxzzssvMvy2-**%o$o%X1***-yyshd*%%%@@O+X@@o%%36",
"*7MsAMMavMnMq*q**-qhisCssMMi*7%#%%$o*%****ys*nii33=&@OOOOX@O@%1%",
"***aaiaamMEkq**8q*q*hyyMMAMMw--:%**%*iqsssnvvvvMTg3>&OO+##O@@%@1",
"%%****1amhhN7**r-q-w*12vAMMnrr<:-*%%rTAHZHHvvAKKWjj>&@@#&&%#o@@%",
"o1ooo****7h**=qrrr7*%%24qMMnrw,,>>**7EIPPUIJKKIUPZE-@@$#&&$&%%%o",
"$o%oo***2****qqqrw-*%%32iirr><<,---**API^'PFKI(^^!CY%%$&,&&,-=&%",
"ooo1oo1***ih7iqrrw-*%@%%%%<-::<:<---hMNPIUUUIK())!TY-%&&&&&&>=&%",
"o%%%%1%%**7hhr7rd>*%ooo@$$%<<&&%%$**qMAIKU(K(((I^^WC<%$#&&&,:>=%",
"$%%%%*2**yiMhsh*6*%%@@@X@@#$&%$@@#**qrNZKKbFIF(PPVzg<$$#####,>>%"
};
