/* XPM */
static char *_d3ae3860b3b451cfd06030b94afa4dfjG9rnqys5GNO2SGd[] = {
/* columns rows colors chars-per-pixel */
"64 64 109 2 ",
"   c #CE4507",
".  c #CF4807",
"X  c #CD4508",
"o  c #CE4A09",
"O  c #D04707",
"+  c #D34A07",
"@  c #D04708",
"#  c #D34C09",
"$  c #D84E09",
"%  c #DA5107",
"&  c #D5530B",
"*  c #D9540A",
"=  c #D65A0E",
"-  c #DA5C0D",
";  c #D15911",
":  c #D25A10",
">  c #D45B10",
",  c #D35D10",
"<  c #D35C11",
"1  c #D45C11",
"2  c #D65E11",
"3  c #D95E10",
"4  c #DB600E",
"5  c #DB610F",
"6  c #DD610F",
"7  c #DE600E",
"8  c #DE610E",
"9  c #DC620F",
"0  c #DF620E",
"q  c #DD640F",
"w  c #DE650F",
"e  c #D76111",
"r  c #D46013",
"t  c #D56213",
"y  c #D76313",
"u  c #D56314",
"i  c #D66415",
"p  c #D76614",
"a  c #D86110",
"s  c #DA6111",
"d  c #DA6310",
"f  c #DB6511",
"g  c #DB6412",
"h  c #DB6613",
"j  c #DC6410",
"k  c #DC6611",
"l  c #DD6711",
"z  c #DD6712",
"x  c #DD6713",
"c  c #D86614",
"v  c #D76916",
"b  c #D76A17",
"n  c #DF6810",
"m  c #DC6812",
"M  c #DF6A12",
"N  c #D96915",
"B  c #DA6914",
"V  c #DD6A14",
"C  c #DC6B15",
"Z  c #D96C17",
"A  c #DB6D17",
"S  c #DF6D14",
"D  c #DF6F16",
"F  c #D76A18",
"G  c #D86B18",
"H  c #D96D18",
"J  c #D86E19",
"K  c #DA6E19",
"L  c #DE7117",
"P  c #D9701A",
"I  c #D8711B",
"U  c #DB731A",
"Y  c #DA721B",
"T  c #DD7118",
"R  c #DC731A",
"E  c #DF7419",
"W  c #DC741A",
"Q  c #DD761B",
"!  c #DF761B",
"~  c #DA741C",
"^  c #DA751D",
"/  c #DC761C",
"(  c #DB791E",
")  c #DE7A1D",
"_  c #DE7A1E",
"`  c #DD7C1F",
"'  c #DE7D1F",
"]  c #E0650F",
"[  c #E06610",
"{  c #E06811",
"}  c #E06C13",
"|  c #E06C14",
" . c #E17117",
".. c #E17418",
"X. c #E07519",
"o. c #E17719",
"O. c #E17C1D",
"+. c #DD7E21",
"@. c #E17F20",
"#. c #E1801F",
"$. c #DE8324",
"%. c #E18422",
"&. c #E38A26",
"*. c #E28D29",
"=. c #E4932C",
"-. c #E6992F",
";. c #E59730",
":. c #E79B31",
">. c #E89F33",
/* pixels */
"& * * & = = = = = e m f e = & & % $ $ # + # @ + @ @ @ @   @ @ . + # = = 8 l S T Q ) ` +.( +.( ^ ^ U J j > = # X # $ $ $ & % * $ ",
"- - - = - w 4 = e m C f = = * * * $ $ # + $ $ O @ @ O @       @ $ & = - - a l K o.Q  .( ^ U J U U J C S l = $ # X # @ # $ & * * ",
"8 w l w w M 8 l f S S w 4 - = * * % + $ $ $ + $ @ @ @ @ @   X + # * = * > - l { D  .T U J J v F J u 2 u 2 = # # # $ # $ * * > = ",
"8 w [ l f M m 8 m S M 4 - 8 - * % % $ $ + $ $ + $ $ + @ @ . X + $ % * * & % j l f L m v u u u u u e , 2 ; & # # $ $ $ & * * * - ",
"8 w l l l [ ] l M w w 4 - - - * $ $ $ + $ $ # # $ $ # + O   o + $ * & # # * - 7 - = a = ; 2 ; ; ; 2 & = & & $ # $ # $ $ * * - ] ",
"] { M M { { l M 4 l 4 - - - * * $ $ $ $ $ $ % # @ @ @ O     o + $ % % $ # + * * = ; & = = ; & ; & = = > & & $ # + $ % & % * * 7 ",
"8 M M M M l l w w 4 - * = * * * $ $ $ $ $ + $ + + @ O @ X X X X + $ $ + X + # * = & & & = ; ; o & & & % & # @ + $ & * $ $ & = - ",
"= f l M l S 8 8 4 8 8 = * % % % $ $ + + $ + # + + @ O + + # o X o o + + # # # # & & & & & o & & & & & # # X O X # # & # # * * = ",
"= a e m w w w 4 - - = * % % + + . +   + + O # # + o # + & o o o o + # + $ % & & & = = & = * & o o & # + @ X X o + + o & # & & & ",
"a 5 5 m M l 4 - - - = & % % + + # # # + + + # * = & > & o + o o + % * * * * * * > l x l 3 = & $ # $ # o @ o + o o & & o & # & > ",
"w m f m n w 4 4 = % # + + + # # # # # o . & - - = = & = > & o o % & * * * ] a 8 l D | | h 3 = # & & $ $ # # # # o o # & & % = = ",
"w f m w e 4 - - * % o + o + o & # & & & & = - 4 = - = & & # & o * * * * * = j l |  .T  .C 2 & & $ * & * * % & & X o o o o & j = ",
"e 5 n e 4 = = = * # + . . o # & = = * & = w f e - = = # & & o o * = * * = 8 l D K  .T J h 3 & & # & $ & = % % o o X o o o & > a ",
"w e 4 w = = & & * & # & & # & = 4 m e e e v 5 e [ = ; o o # & & + % & * * 8 M D T T  .J u & & $ & $ * * > * # o o o o # & & = = ",
"= = = = = = # & & * + * = = & = 5 a m v Z m C C = ; ; + & & & # . + % # = 8 l l K U G h 2 = # # + $ * * & # o X X X o # o o # = ",
"= = = = = & # . o & & % = = 2 e v v G J J ~ G i e a ; = & & & o . . + & = * j 2 S C G 2 > = ; @ X @ * * o o o X X o # + o o + & ",
"& & = * = & . # o * & * = a e m J Q ) ) ) ) Q J S h g > & & o +   . + $ * & = a i e e , & & o   o @ $ $ $ $ # X o # & $ & & # & ",
"= & = - * & & & + o = = = f M J Q ` %.#.$.#.#.) O. .K > & + & $ + . $ % * - = - a e = ; & & o .   + $ % * $ # # # & $ % & > > ; ",
"r = = = 4 & * & # o & = l f Z U ( #.&.*.=.*.*.#.@.o. .2 > & = & $ + % % * * = & = = = & ; X o   X + # $ * $ $ $ & - - = = 3 a > ",
"e e = = - * & & & # * - M D Q Q ` $.*.=.=.-.=.*.@.@.K 2 & = % $ $ $ * * * * * & & & = & o o + . O + % $ $ * = * - 3 3 l l S h a ",
"v d e d = * * & # & * 4 l L o.Q #.*.=.-.=.=.&.&.%.@.G 2 & & & $ * $ % % * * * & & & & o & # # o O O + $ % * - - 3 l C M K | F i ",
"B T m d 4 = & & # # = 4 w M T Q #.&.=.-.-.=.=.&.@. . .g ; & & * * $ % * * % * - & * o & # & & % O O . $ * - - 3 l f D L  ./ J T ",
"W U B B 4 = * & + # & - 4 f Z T Q #.&.*.=.=.&.#.@.@.x x ; $ * * * * % * * * - * * & * & % % & # O X O # & - 3 a D D L Q ) ) Q Q ",
"U U L m 4 e & o # & * - - l n v T O.#.%.#.#.#.#.J J h > ; & # $ $ % % - * - * - - = = * = * + + O O @ # & = 3 S S T ) O.#.%.O.Q ",
"U U T Z q = & . # & - - - ] 0 = e J J ( / U U J C u > & # # o @ % - 3 % 3 3 3 3 - - 8 * * & + o o o & * = = 8 L T O.#.#.#.#.#.#.",
"U Z L q w = & . # & % - - 0 - = = e e v J F G Z f 2 & + & * & 3 - 8 [ 3 x 3 x j 8 f l % * $ o + # & * - = w L o.O.%.#.&.-.#.#.#.",
") U v 5 e = & % % * % - * - = & = = = , u i S u a ; o o # * % 3 8 x | S |  . . .D M a - & # # o . & & = 5 Z  .O.O.&.&.&.&.&.#.#.",
") U Z 5 = = = & & * & % * - = & & ; & & & 2 2 u & & o o + * = x |  .Q @.@.@.@.@.o.L M = = & # # o . & = 4 | o.#.%.%.` &.#.#.#.#.",
"L L L n w 4 * % % & * & % * % o o o & ; & & & & & & o # & & 3 x | o.&.@.&.&.&.&.o.o.5 = & & # & # o = = f Z L ! #.#.) #.#.o.o.o.",
" .L M w w 4 0 * % - * % % % o o o & o & ; & o & & # o # $ ; 3  .R @.&.*.;.=.&.&.#.~ f e = & & # & & & = f m L ! Q ) ^ J O. .Q o.",
"L L n n 0 4 - * * - % # + + o . o & & & & & & & o o o & > = x J @.@.&.;.:.:.;.&.#.U t e = = # & & = = = w 5 m L ~ T J i J v M L ",
"w n n w 0 - - * % # . . . . + # o & & = & = = ; o # & & 3 3 x J @.@.&.=.:.:.=.&.( J v t = = - & = = - = e f f v M T S v v m e e ",
"- 4 ] - - = & $ + # X + X X o # $ & 3 3 3 3 ; & o # & & 2 a h G @.*.;.;.;.;.=.&.@.J x h 2 3 - = = - - - w f f e f C Z Z 5 m 5 d ",
"4 - ] - - * % & * $ O X @ @ o # 1 3 3 3 i i 2 2 2 ; = 3 3 h F O.+.*.;.>.>.;.=.%.@. .h | [ h 7 - - - 8 - 4 4 4 e f e 5 m G e m f ",
"w w 4 - * * * * % & # o + o # & 3 3 u G I +.G F F h h l x x J O.*.*.;.;.:.;.&.%.@.| | 3 3 3 ] - - 4 ] 8 e e = = t e e m m 5 m 5 ",
"] - - - * & & & % % $ + @ X o ; 3 i v v @.+.@.+.T J i h a f K / @.*.;.;.=.&.&.@. .| h = 3 = = - a 8 w 8 w 4 = = = e 8 5 w w m m ",
"8 4 8 % & $ % $ & % $ + X o o & 3 G J +.+.*.%.*.@.o.C a 2 i J ^ +.&.*.*.&.&.%.o.| h 3 = & & & = - 8 8 w w w e & = e 5 n M M n n ",
"4 - 8 * * $ + # + & + + + o o ; i G +.@.*.*.;.*.%.^ F C a u K T +.@.%.@.@.@.O. .{ 8 - $ ; # $ & - 8 ] ] w w l = = - w m n 5 n 5 ",
"- - % - $ @ + @ # + + o # o o ; 1 F J @.=.;.;.=.%.T C v S C S J K +.@.+.J @. .[ 3 3 & # * * & & = 8 8 ] l l - = = e m m 5 4 - 4 ",
"- - * + # @ @ O   X X + X o o & 2 J +.+.*.=.;.*.+.J J F K h S A G C G u x h [ 3 = - = $ $ * * * * - - [ l l 8 = 4 e 5 m d e d - ",
"- - * o # o +   @ @ @ @ # X # ; i I @.+.*.*.*.+.+.U T  .S x a a g 2 u 2 2 2 3 & $ - $ $ $ $ $ # % - - w m m a = e r m m e e e e ",
"4 - & & + # + @ @ + @ @ # # $ ; ; F @.%.*.*.*.+.+./  .D x a 3 - 3 > 3 > * ; $ & * * $ # # # o # & * - - w = a a w Z Z m v m Z w ",
"w = & & # # # $ # @ X # # # * > 1 F %.@.+.*.*.+.` T Z D l - - - & ; & & ; # # $ & $ $ $ $ @ # # % = - - - = e 5 Z L U T G ~ T Z ",
"l u = & & $ $ $ $ # # $ # ; & > 1 F K @.@.+.+.+.T C l a - - - = & # # + @ @ @ + $ * $ $ $ @ @ @ % % - = = = t m U U Q ( Q T ! Z ",
"R J x 2 > - * $ $ # # # # $ $ - * x | @.@.@.@.R S f e - - - = & & $ o X O + + + $ $ $ $ $ # # @ . * - - = = d v ( $.$.$.$.$.#.~ ",
"+.o.G 2 > & = = % $ # # $ * = > x x { | X.R R x w w 4 - - = # * $ X   @ + @ + # $ @ $ $ $ # $ # + & - - = 4 a T $.$.$.$.$.*.$.` ",
"+.+.J a 2 3 - - * & # $ = = - * 3 7 { x | | { g w 8 4 4 * & % + o X @ @ + # @ + @ @ $ $ $ $ # @ . & % - - e Z J ( $.*.;.;.;.$.$.",
"+.+.U i f 2 3 = = > * # * = 3 * * 3 3 x g x 3 3 4 4 - * = % + + o @ @ + @ + # @ @ $ @ # $ $ # @ + + % - = - 4 i Z ` $.*.;.>.>.$.",
"@.+.+.> g i e 2 2 2 = & & * = = * [ - - ] ] ] - * - - * & % . . @ # # $ $ $ + @ O + # + + $ $ + + + % & = = = a J U +.$.=.;.;.$.",
"&.+.+.I G J J S | a = = = = - * - = 7 [ ] - j - - - - = & + . . $ $ $ * $ $ $ # + + $ $ $ + * & + & & & * - 4 Z T ^ +.%.*.*.;.*.",
"$.$.+.+.^ ^ / T A g 2 = & & = - = 8 - [ ] - - = - 8 - * = %   + # $ # # * * $ $ $ X # # $ $ $ * & % % % * ] w w T o.Q +.$.$.$.*.",
"$.$.$.+.%.@.O./ A g 2 > = - - - > * ] a ] - = a a 3 j - & % & + # + X # $ * ; $ $ # + + & * * * % % = % * - - w S Z J J +.$.$.$.",
"$.*.&.&.%.%.+.J C a e e 8 8 - - - - - a e e e g M l a = = % + # X X X X # # # o # & # & & & * * & % % * % - = - j 3 i F F I +.+.",
"@.&.&.&.&.@./ o.J v m f l - - ] 7 j 3 l u l C K K S a = > * & + @ X X # o + & & & # # & & & - = - = = & % + * = 3 3 1 1 ; , C R ",
" .@.%.%.%.O.O./ J Z S S M 8 w ] j = a l T J F J D C u ; & * & $ o X X o & o # ; & & ; & > 3 j = & % # % % + + % $ % & & ; & 2 F ",
"h J  .O.O.O./ I U ~ D M l w 8 - = 3 l x | J i C i D e = = & & # + o o o o + & = > = > 3 2 j j j = & & # . + + . X @ + @ X o & 3 ",
"& r v G U U U G S S S f w 4 e = - 3 [ l h G J S u u h 3 & $ $ # + # & & ; = ; 2 2 2 e h u C u 2 > 3 - & $ @ X X @ X     @ @ # @ ",
"& - d e v m Z G C C L M w = = - - - j 3 a h i J K C x x 3 > % $ % & & & = a C S D Z J J J F S J S j l - & X X + # #       @ X & ",
"o & : : e d e d C f l f = = - 4 > 3 3 3 > ; u h K S [ j j = % * > % > = f T T ^ T o./ / U ^ ) )  .S l - % # # $ $ $ $ @ X X X + ",
"o o o o # : : t e e f 4 = = 4 - - ] 3 = & ; 2 u h x [ [ 7 - 7 * = = = = h o.O.O.+.%.%.( ( +.$.O. . .T f & o $ $ $ $ $ $ + # # X ",
"o o o o o : : , = = = = = = 4 - 3 * - = & & 3 ; = l j 3 - - * 7 = - > 2 C T O.O.%.%.%.+.+.$.$.%.%.@.| [ 3 $ & * % % $ * $ $ # # ",
"o o # # o & & = = = e e = 4 - - - 3 * & o + & > & & - = = * * 7 * - 3 a C K ) +.+.%.&.$.$.$.&.&.%.@.X.{ 3 & * * % $ % $ $ $ $ + ",
"o o & & # & & : ; = 4 e 4 = - - 3 * & & X X # # # # $ * * * * & * * = a f  .o.+.@.$.$.$.$.$.&.$.%.@.X. .x & $ = % * * $ > * % $ ",
"o & & & & = = & : e e 4 e = = % $ # + o @ + X + + # $ $ % & + # # & = e f | Q  .+.+.+.+.$.$.%.@.@./ G S 3 ; $ $ % % % * * * * $ "
};
