/* XPM */
static char *result[] = {
/* columns rows colors chars-per-pixel */
"64 64 56 1 ",
"  c #CE4406",
". c #CF4807",
"X c #CE4708",
"o c #CF4A09",
"O c #D14606",
"+ c #D44A07",
"@ c #D94E07",
"# c #D34D09",
"$ c #D94E08",
"% c #CF500D",
"& c #D75007",
"* c #D85007",
"= c #D5530B",
"- c #D9540A",
"; c #D65A0E",
": c #DA5B0D",
"> c #D25710",
", c #D65D11",
"< c #D95E10",
"1 c #DD610F",
"2 c #D76214",
"3 c #DB6412",
"4 c #DD6A15",
"5 c #D76719",
"6 c #D96718",
"7 c #D76A1A",
"8 c #DB6D19",
"9 c #DF7017",
"0 c #DD731C",
"q c #DF791F",
"w c #E0630F",
"e c #E06611",
"r c #E06D14",
"t c #E17216",
"y c #E1741A",
"u c #E27A1D",
"i c #DC7620",
"p c #DE7B22",
"a c #E17D21",
"s c #DF8126",
"d c #DF8328",
"f c #E28324",
"g c #E58927",
"h c #E18629",
"j c #E48B2B",
"k c #E88D28",
"l c #E6912E",
"z c #E8932E",
"x c #E28F30",
"c c #E59432",
"v c #E89631",
"b c #E69935",
"n c #E89C36",
"m c #E79E39",
"M c #E99E39",
"N c #EAA23C",
/* pixels */
"22:;<<<<68agghhjkhaa6w<-=#==$%$Xo+$$=$#-=-=%..ooo.#%@#+ +=<<ee4<",
"313<<w334aaffgjjkfat8e<<-%oooXXX$$--$>-<111=;=oo%%=-:=#o##==<:<3",
"ww1errertaafggkjgfaat6w<:;>$ooXX#$;---:w111;;=%==%=1;;=%=-=--:w<",
":w3errytyafafgggaatyttr6e3<>=+X+$$$$@-::112;=%>%;>%1,2;;,,--::::",
"ww3rtyuuuufuaffuautttyt8886,$o$o@*@@+=:w1-;;>;>>,,2474433<;--:w:",
"wertuafafguffgfuutttyuuq086,>oXX@=@+++--1;=12;2,2999q0q74e<:---w",
"3rtuafkgggguufuttrrtuuqu08<,>oXX+@++OO@====;;21389sfff978re<---w",
"<40agzcczzkkfuyt4r480uuqa886,>oX O+O+O++&%>;;2680ssffsq0062<>,--",
"26iajcMMnnngfu04233490qui093>%.  O+++++O+-=,34600hjdhdspi86<,;=>",
"48ijcMNNNNbhfu83132270qfsi96;%o. #+@@@@@#-:3r80ushllcchsi87,,=,<",
"4yajbNNNNbjha0832;3240qff0862%..++@@@@@$--13r8qpglvbbcbha872,-,<",
"4yahxcMMnlhsq86312;,29qq0971;%#.+@@+@@@@--w3380ahlvnNnvhi72,,:<<",
"2taahjccbjpq873211>;3499932==%#.@@$O$$$@@--<238qflznNnld072,>,;2",
"336apfhjjhpq82,:311;116742>%.%%#O+++@@$$@@=:,<6qfjzNNvhp072>==-:",
";,64upipaa0093;;1;;;2;12;>==%=%=++#+@@+O+@#=;,60qgzvbhsi552,>oo=",
"=;,,6667808733;;=;;;;;;;>;;>=;=o###$#@OOO+#o=,269pljhdi752,,=#oo",
"o#;;<,<6<62<<<;=-:;;1;;>111;=;==&==&&&...+..%;,27qfgfaa66<3-=-oo",
"##=,,;,,>><:<-:;;1111113411;;;111=:1:-=#+.%#.%;270ufaat423:-==##",
"#o#-->--==>-;--;;11144444441;34r411111=&&.%#=%=;2ryuut423::==--#",
"####-$$>#+--::;;;;4449rrr442;44444r441:-&.#..#=;<24trrre<w:-&=#+",
"#-&&#=$####---::14r9999r99433349ytttr41-==.+.--==<21r3e11::*==##",
"##-===@+OO+---:<1r9ttqu909t944rquuftrr11;=&====;==;;1::::-:=*&.#",
"#===*=#+OO#$--->149quqf9q9994499uutttr431;=-==;==o==-;;-::=-==&#",
"#=*=&#+OO+$$-::>2799fffq09944244rtutr4431111;1==o#o#---;*::--==&",
"o====&. .+&=-:<>270qppppq9823333rrtrrr41rr111;=o======1-::1-:--=",
"=====#...@**-<w,27qqfphhq0733444rttrrr4rrrr11;;==%1=-;11w1w111;-",
";=-=&&&.@-*:ww667qqpsjjhp0221414rrrrertttt4441;;===11144rrrr3111",
"11-:==&&&--w<er70ppssjjfp92,;144errrtrft9f9432;;=;;114r499444411",
"111111:--::we680isdddjsp08,;<:1111r4tttfs943312;;=,37999q9443431",
"43e11111::<4tyiisdddddp082,,:;111114rttr993442221;,399qffq074334",
"rrr11ew1w344iiaadxdcjsq02>=;:=111;;1rrrr932333<2<32399tqf9778234",
"4rrree113448aihhxxbddf02>===:===;;111re12333323<33499ffssss00944",
"rrtr44114470pdxxcbbxaa6,%==&-=#=%;:-1111<<e331112449qaffahfqqq99",
"9trr4344990sdxxbMMcxpi<>=oo#&&##=-:1:::::w:3w3211340uafhhhfgsuuq",
"fttr41498qqsdcbmMmxpi7<>=##@@+#-===-::-:::-::w1:1e4tuapafgjjgffu",
"fttt4r9r9usdxxcbmxaai8<;##+++o++&#&:-----:-=-;:-:3ryuappshjlkgff",
"fttt44449qffdxxxxhpi73<--#OO  +O###-*--*-$-####$:1eryaaifdlzkkkf",
"fttt44449fqsdddxjai76<<$#O   O +#@#@@***$$$+#++@-:wrtua0sdgzzkkf",
"fttr423490qqssqsai77<,-@+   #+O+++@+O+**@+++#=++-:wwrtyiqfkjgfff",
"t9rr4333369qqqqq7655,=#+  O+#+--#++OO@@@+@@@@@@+=--wer880qfdfqf9",
"t9r343431479977755<<>%XOOO+--=$##ooo#+#o+$$@+O@O+--:13379qqqqf90",
"94433343443797225,,:$oXO+#=----====&# OO$$$O+OOO+---:;;399097009",
"4332334441163332,>:-$#O+#=-:w::,;;;==#++$$$@+OOOO@@#-==123772794",
"233234443411121,>-:;>$#$--;:13r422,;>##+--$@+  OOO++##%=12322121",
"2343343111;;;;::--------=:234989862>,===$$-@@O+ O@@O++.&;;;11,,,",
";12<231r1:==::-::-ww::w-:14rtq00y8522,,-=$=-@@+O+O@@O+o#==;1;;;;",
";2,;;111::#------:---:<<3tuuuusfp90843;---==-=@ OO@+++..#==-;1;;",
";;;==;;====#*:----w::w<<tuuffjddsqi062:--=--*-*@OO+@O+....%=;;1=",
";;;%%===&&=++=&&-:::ww419ufghjjdghhu941;;-;-;---@##+@+O   o==;,;",
"1;;%%%&==&&+.&*=---::w44qfglxldllghfu941;;3<3<3<-$#$-@++#++=,<2<",
"3,,;;==&&++  o@&=--::w14ufklcclllhfuutr1w:<34444<<,-------==<233",
"923;==&&... O#&&&-*::::60fjjlbcjjhqqt44623448tt6re<w-::-:;;,,4r8",
"4441;%..  O++&-@&--===,20uhjbbbjhp97732133480uy8rre<:::-:<<<2800",
"ts91;&..  +*&*:---&-=;;70afhljjhp0862,;;12498qauy43e:-:::,4668ii",
"ft91-=.+  @---:::-===;=20qqphjjgi022,=;,:<380aau86<::-;<w<688iif",
"9941:=..+#--::1-;::::;;,3qqphhgfq82>=%#=;,3680uq46<,--==><6iiipa",
"062,=#oo+#--;<e,121:;;;,28uuaapa97,;=%oo=%;,2663363->$$%;,60appp",
"i62,;=#===w<3<4e4432;=;130ugffau06,====-==;,,,,33e<w-o%:e678ppdp",
"a62,==o=;;34438uyy83,>,280uuffuy93:=-*=*-==%=>,2<w<-$$=:etaipdpp",
"i8,>%%==;<3668aauft8>=224tuuuuuyr3;=&=:*&=-#==;:<---#%$:<rtahpxp",
"062>=>=;,,66iahfgfu82,2<3rtytyyr41=##&-&-&=ooo=---:-$O$-w6yaphap",
"862,>;,2,28iahjkzgf02,:;;2rrrree::=&#@#@#=#oo+=----$$o$;:wryajpa",
"8662,;,,26yahglczjaq6>;;=,;wr3:;--=#@&&=-&%##o#=$$-$$Oo$:weyyaai",
"3322<:2228uhhjxljhay62,==-;-::-==#=&&==&=#=o=###+@@$$Oo$$-werya8"
};
