/* XPM */
static char *result[] = {
/* columns rows colors chars-per-pixel */
"64 64 46 1 ",
"  c #CE4406",
". c #CF4807",
"X c #CE4608",
"o c #CF4908",
"O c #D04606",
"+ c #D24A07",
"@ c #D04708",
"# c #D34D09",
"$ c #D75007",
"% c #D5540B",
"& c #D9550A",
"* c #D65A0E",
"= c #DA5C0D",
"- c #D65D10",
"; c #D85E10",
": c #DC610F",
"> c #D76213",
", c #DB6412",
"< c #DD6B15",
"1 c #DB6D19",
"2 c #DF7017",
"3 c #DD731B",
"4 c #DF791E",
"5 c #E0660F",
"6 c #E06710",
"7 c #E06D14",
"8 c #E17116",
"9 c #E1751A",
"0 c #E27B1D",
"q c #DC7720",
"w c #DE7C22",
"e c #E17E21",
"r c #E4801F",
"t c #DF8125",
"y c #E38324",
"u c #E58926",
"i c #E28728",
"p c #E58B2A",
"a c #E88D28",
"s c #E6912D",
"d c #E9952F",
"f c #E69531",
"g c #E89632",
"h c #E79A35",
"j c #E89B36",
"k c #E9A03A",
/* pixels */
"<<<>7<233wuututtye007<,,==>=**o%%o&&&&&;=::*%%%%%---::%%*>,,282<",
"<7<<80934yuuituiue0988<<>=*&%%%%%*=====67:::---%-->>:>**%:%*:,<<",
"78990000yuuuuuuuu090987<<,--*o%o*;&=&=:657,>**%->*>><>->:::::::7",
"779900yyyyuyyyyyee00009922<,-**%*&=&$=:5:<:=**-o*-><<<>>>:::::<:",
"58800uuyuyu4ryr0e99900eq301,-*-%&==&&==6,;;;---->>>13231<,::::5:",
"780eyuaauuyyyrr999890eyewwq>-*%*&=&&#$==;&=*----<233rr312<,::::5",
"690yuagappuyr09988800yeye331-*o%&&$$##$&;**---;><3rrtr3322<:**::",
",20yagggddpu0992778900ueeq311-%o$$#####%#%%---,>14rtt3q132,:*:::",
";1qishjhhgpiy92<>,<13wwittq1>-*o##%#$$&$$&&:,<<12wtutwwq32>>----",
"1qepfjkkjhfye3<,>,,134yuttq1>-ooo&&$$&&&$=:,,713weuiiitw311>--->",
"3eefhjkkhfttq1<,,,,11wuiptq1>-%o$&&&&&&=&=::7113euppsppt31>>-;>,",
"7eeipfhhgptw3<>,,>*>134y43q>>*%#$&&$&&&&=:::;<1qwuisffpt11>>-;,<",
"7eeeissfsieq1>>>::>><3qq311**%%#&&&$&&&&&&==;;114yupdsiwq1>>-;>7",
"71eeeiiipyq31>;<<,,>>1312>-%#%%##&$%$&&&&&&=;--10yufgst31>>>*-;<",
",11qewqeeeq99>;,>:>>,,>>--*%$%%&%%%%&&&$$#&&%-;11eupttq1>>>>-%&>",
";,;73111311<<,,;::==->--%**%***%%%&*=&&#$&#@#-;1>3yywqq11>>--*%*",
"-;6,<1>>>1,,,1;;,,>>:=-*:::*%******::&%%%%%oo%**<1eee08<><,,:=**",
"**;,;;<>;;6,<;,<,<<,,::>:::***,,:,,<,>:*%o%o%%**,100091<<<,,:,-=",
"*%;;;;;;*%;:,,<>,,<17<<<,<,>>,72328282:**o%%%%#*;<7888<,,67:::>=",
"**%;=;&&%%=;677,,<887877<<,:><2344r048<,**%%o%**&;,7<766,6,,,,:=",
"==*%&&&%#&&:671<<89922<<<<,,,<2rrrurrr2,>-%*%*&**--;6,65:::::,**",
"*===&&%%##=:6:7<280999992122134ruaaayr32<>-%***&%%%*;=:;:>::::%*",
"=**&&&##@#&=;;,,<2900992222322rruaaarrr92<,>:::*%o%*&;==::,::::*",
"=&=*&$#+@&&==6<,,2339432<2221144rpauyrrr99<5,:*%#%#%$&&=:::::::*",
"**%%&#+X+$&==66;,11133311<1<2334tuuuut44rr9<<,>%***%%**:::<:::::",
"=%*&&$+X+$&=:,:;,111434441,,293rruuurrrrrrr22<>-**::*::5:<:77<::",
",%%%##$O$$&=:6<>11113tt441,><23rrrurruurrr3r3<<>:%:>:>55778875::",
"::*&$$$$$&&::,<>1133444431>>,299rrrrrrarryr33<2>>>:,:,78827777::",
":::===&&$&=:67>111333w311,->>1<980y0rrrurrt3331>>>,,<22232<<,,,,",
"<:5:5=:&=:;,,71133333311,-*-:><<<<99rr0rrt13332>,>><<22331<<<>,,",
",75,5=::::,;1111qww4431>-%*-::,<<<<<990933113222<<<<2233r1>>>>>:",
":,55555&=6,71qeetttt331-%%o**====>>,788<<<131<2<2<2<23r3333<<<5,",
"::5<,:::>,><qwttpeew11-%####%&&%==,=,6<,<<<1811<<8819ee9qee112<,",
"7<<7:,::2<33qtttffew1>-%#+#$#&%%&==;6;6;,6<77877<788339ee9902232",
"877:<::7133wttfffewq1>*%##$$&#$&%&===:=:=6:5<77,<<898e8eqeey0409",
"8877:<<<<0wwttttfeqq>1;%##@@#@+$#$$=&==&=5==;,;,,7883e3qqeeyy009",
"9877<:<<890wwtttwwq1;-;&##@@  @@#$&&&&=:====&%*=;6788e334tuuyyr0",
"9877,,<<804wtwwwwq11;-&&#@  @@@+$#%&&&:&=&&&*%%&=:677ee33tyuuyrr",
"8885<,,,<234qqqqq1>>;=&$+   ##@###$$&&&:===%&=%%&=667e7q4tyyy009",
"288:,,,,<133q111>1>-=%#+@ @+$#&%%#$$&=&&&===&&&$&==6787144yy0498",
"277,,<<><<113<11>>;-%#@@@+#&&&%%&%#%%:*&*::&&%%#$==:<<,<23443222",
",7,>,5<<><<1<<,>>>;;%%%##%&;=&&&&**-****:::&&$###&&=:>,<23321121",
",,>>,,<<7,<><,<>>--;;%%%&&&6:;&;;=-;=***:::=&%##$$&%&>>><111><2<",
"<>5<<7<<7<<<,>>>--;;;;--;,;,667,>>>->=>::55=&%..$$$$%%%-,<,,>>>:",
",<<<7<777;;;==::&;666<6;,,<<<2<1<<>>>,:=::==&$$.+$$$%%#%*>:>>**>",
"><,,:,5<6;;&====:;66<771<99993232<>>,,,,::::&&$$+$&&$$%%:*:*:>*>",
":>>>,,,,:=%%=====66<77119ery0e4431<<1,,::=:::&$$++&&$##%$**::>*>",
">,>-**::=*%#&&&=&=667999ryyuyyw4q331<,:=*==&==&$#$&$$##..##*:::*",
">,>****%*%&##&&%&:578800yuiuutt4r4r227>:*=::==:*&&%%$$++#@#*;;,;",
",>>-*%**%:&#o$$&&::58894ruppputttrrr87<:>:::<:<,;&*&&&$%%%#*;>><",
"2>>>:***%%#...#&&=:,7823yuspsptuyt3228<:,::<<12<<,;;===;;;&*,<17",
"2<2,>>%*#o...#$$&&:::,<<4ypipptwy31227<,,,<129238876:6:;6:;;;111",
"r22::*%oOOO$$%$$%&&***,13yyuutuw411>>>,:,<<33rr4e997<,;66,,,111q",
"rrr2:*%#.O+$$$&&&&&&%%>,24wwuuyt31<>-->:,,133tttee38<677711111qe",
"rr2<:*%###$&&&=&*%&&***><333wtt031>*-**,,,,14rytee198<,<781q3qqe",
"122>:%%#$$&=&===&%:&=*%>,13344431>-*-%%%>>,11trr118<<<,,;113qqwe",
"11>>-%%o%%====;=:*:****%><8844421>:*%%%%**><<1333492<<,>1>13ewwq",
"q1<--*%%&&:,>=;<<,:**%*>,22r99481<>***%***>>><1230992,<88e1eewww",
"q1>-*%**>>,,>,1822<>***>,29rrr98<,:%&:>:%::*->119999<<<9ee0ewwww",
"q1--*--->,<<1190431<%%->,288r8882,%%&&:*%::%*><<2822<,<880eeiiww",
"1>>--->->>>1qeeerr3<>>:>78888887:::#$&:&::*%%*:,7787,,67800yiiee",
"111>>>>111qeeeipuyr<>>>:>,88778<::*&%*&:*>*%%*>:777<,,<7780eyyee",
"111>>><>1qeeiypiayr2,:*>:,:57<::*&&**&***%****:::7576;;67780e0e1",
">1<1<1111qeiuiiitt32<>-:>::::::*%%&*&*&:******>:::::,==:667890e9"
};
